<svg xmlns="http://www.w3.org/2000/svg" xmlns:xlink="http://www.w3.org/1999/xlink" xmlns:lucid="lucid" width="1320" height="1049.6"><g transform="translate(-200 -7.105427357601002e-15)" lucid:page-tab-id="0_0"><path d="M0 0h1760v1360H0z" fill="#fff"/><g class="lucid-layer" lucid:layer-id="1cYc3FSgQL0r" display="block"><path d="M357.24 20h404.48v96.4H357.24z" stroke="#000" stroke-opacity="0" stroke-width="2" fill="#fff" fill-opacity="0"/><use xlink:href="#a" transform="matrix(1,0,0,1,362.24137931034477,25.000000000000007) translate(12.225000000000051 25.275)"/><use xlink:href="#b" transform="matrix(1,0,0,1,362.24137931034477,25.000000000000007) translate(67.72500000000005 25.275)"/><use xlink:href="#c" transform="matrix(1,0,0,1,362.24137931034477,25.000000000000007) translate(136.67500000000007 25.275)"/><use xlink:href="#d" transform="matrix(1,0,0,1,362.24137931034477,25.000000000000007) translate(152.17500000000004 25.275)"/><use xlink:href="#e" transform="matrix(1,0,0,1,362.24137931034477,25.000000000000007) translate(12.225000000000051 46.875)"/><use xlink:href="#f" transform="matrix(1,0,0,1,362.24137931034477,25.000000000000007) translate(67.72500000000005 46.875)"/><use xlink:href="#g" transform="matrix(1,0,0,1,362.24137931034477,25.000000000000007) translate(136.67500000000007 46.875)"/><use xlink:href="#h" transform="matrix(1,0,0,1,362.24137931034477,25.000000000000007) translate(152.17500000000004 46.875)"/><use xlink:href="#i" transform="matrix(1,0,0,1,362.24137931034477,25.000000000000007) translate(11.225000000000051 68.47500000000001)"/><use xlink:href="#j" transform="matrix(1,0,0,1,362.24137931034477,25.000000000000007) translate(66.72500000000005 68.47500000000001)"/><use xlink:href="#k" transform="matrix(1,0,0,1,362.24137931034477,25.000000000000007) translate(135.67500000000007 68.47500000000001)"/><use xlink:href="#l" transform="matrix(1,0,0,1,362.24137931034477,25.000000000000007) translate(151.17500000000004 68.47500000000001)"/><path d="M246 108.65h680v75.18H246z" stroke="#000" stroke-width="2" fill="#fff"/><path d="M269.45 112.4H386.7v75.2H269.44z" stroke="#000" stroke-opacity="0" stroke-width="2" fill="#fff" fill-opacity="0"/><use xlink:href="#m" transform="matrix(1,0,0,1,274.4482758620689,117.40601503759399) translate(5.774999999999999 16.4625)"/><use xlink:href="#n" transform="matrix(1,0,0,1,274.4482758620689,117.40601503759399) translate(5.774999999999999 38.0625)"/><use xlink:href="#o" transform="matrix(1,0,0,1,274.4482758620689,117.40601503759399) translate(5.774999999999999 59.6625)"/><path d="M433.6 100h117.23v100H433.6z" stroke="#000" stroke-opacity="0" stroke-width="2" fill="#fff" fill-opacity="0"/><use xlink:href="#p" transform="matrix(1,0,0,1,438.58620689655174,105) translate(5.774999999999999 48.15)"/><path d="M597.72 100h117.25v100H597.72z" stroke="#000" stroke-opacity="0" stroke-width="2" fill="#fff" fill-opacity="0"/><use xlink:href="#q" transform="matrix(1,0,0,1,602.7241379310344,105) translate(0.7749999999999986 48.15)"/><path d="M738.4 100H926v100H738.4z" stroke="#000" stroke-opacity="0" stroke-width="2" fill="#fff" fill-opacity="0"/><use xlink:href="#r" transform="matrix(1,0,0,1,743.4137931034481,105) translate(23.924999999999997 48.15)"/><use xlink:href="#s" transform="matrix(1,0,0,1,743.4137931034481,105) translate(70.925 48.15)"/><path d="M400 181v-69.35M400 180.97V182M400 111.67v-1.02M580 181.35V112M580 181.33v1.02M580 112.03V111M740 181.35V112M740 181.33v1.02M740 112.03V111" stroke="#000" stroke-width="2" fill="none"/><path d="M307 566h60v20h-60z" stroke="#000" stroke-width="2" fill="#c92d39"/><use xlink:href="#t" transform="matrix(1,0,0,1,311.9999999999998,571) translate(5.299691358024692 12.622222222222224)"/><path d="M307 546h60v20h-60z" stroke="#000" stroke-width="2" fill="#00f"/><use xlink:href="#u" transform="matrix(1,0,0,1,311.9999999999998,551) translate(5.299691358024692 12.622222222222224)"/><path d="M307 526h60v20h-60z" stroke="#000" stroke-width="2" fill="#038503"/><use xlink:href="#v" transform="matrix(1,0,0,1,311.9999999999998,531) translate(5.299691358024692 12.622222222222224)"/><path d="M307 506h60v20h-60z" stroke="#000" stroke-width="2" fill="#fff"/><use xlink:href="#w" transform="matrix(1,0,0,1,311.9999999999998,511) translate(22.808641975308642 12.622222222222224)"/><path d="M307 486h60v20h-60z" stroke="#000" stroke-width="2" fill="#fff"/><use xlink:href="#w" transform="matrix(1,0,0,1,311.9999999999998,491) translate(22.808641975308642 12.622222222222224)"/><path d="M307 466h60v20h-60z" stroke="#000" stroke-width="2" fill="#fff"/><use xlink:href="#w" transform="matrix(1,0,0,1,311.9999999999998,471) translate(22.808641975308642 12.622222222222224)"/><path d="M307 446h60v20h-60z" stroke="#000" stroke-width="2" fill="#fff"/><use xlink:href="#w" transform="matrix(1,0,0,1,311.9999999999998,451) translate(22.808641975308642 12.622222222222224)"/><path d="M307 426h60v20h-60z" stroke="#000" stroke-width="2" fill="#fff"/><use xlink:href="#w" transform="matrix(1,0,0,1,311.9999999999998,431) translate(22.808641975308642 12.622222222222224)"/><path d="M307 406h60v20h-60z" stroke="#000" stroke-width="2" fill="#fff"/><use xlink:href="#w" transform="matrix(1,0,0,1,311.9999999999998,411) translate(22.808641975308642 12.622222222222224)"/><path d="M307 386h60v20h-60z" stroke="#000" stroke-width="2" fill="#fff"/><use xlink:href="#w" transform="matrix(1,0,0,1,311.9999999999998,391) translate(22.808641975308642 12.622222222222224)"/><path d="M307 366h60v20h-60z" stroke="#000" stroke-width="2" fill="#fff"/><use xlink:href="#w" transform="matrix(1,0,0,1,311.9999999999998,371) translate(22.808641975308642 12.622222222222224)"/><path d="M307 346h60v20h-60z" stroke="#000" stroke-width="2" fill="#fff"/><use xlink:href="#x" transform="matrix(1,0,0,1,311.9999999999998,351) translate(-2.8740740740740733 12.622222222222224)"/><path d="M265 972h120v28H265z" stroke="#000" stroke-opacity="0" stroke-width="2" fill="#fff" fill-opacity="0"/><use xlink:href="#y" transform="matrix(1,0,0,1,270,977) translate(6.049999999999997 14.4)"/><use xlink:href="#z" transform="matrix(1,0,0,1,270,977) translate(54 14.4)"/><use xlink:href="#A" transform="matrix(1,0,0,1,270,977) translate(69 14.4)"/><path d="M440 971h120v29H440z" stroke="#000" stroke-opacity="0" stroke-width="2" fill="#fff" fill-opacity="0"/><use xlink:href="#B" transform="matrix(1,0,0,1,445,976) translate(6.049999999999997 14.4)"/><use xlink:href="#C" transform="matrix(1,0,0,1,445,976) translate(54 14.4)"/><use xlink:href="#D" transform="matrix(1,0,0,1,445,976) translate(69 14.4)"/><path d="M614.72 969h120v29.6h-120z" stroke="#000" stroke-opacity="0" stroke-width="2" fill="#fff" fill-opacity="0"/><use xlink:href="#B" transform="matrix(1,0,0,1,619.7241379310343,974) translate(6.049999999999997 15.65)"/><use xlink:href="#E" transform="matrix(1,0,0,1,619.7241379310343,974) translate(54 15.65)"/><use xlink:href="#D" transform="matrix(1,0,0,1,619.7241379310343,974) translate(69 15.65)"/><g fill="none"><path d="M246 969.6V940h164.8v29.6z"/><path d="M410.8 940c0 5.7-4.6 10.3-10.3 10.3h-61.8c-5.7 0-10.3 4.6-10.3 10.3 0-5.7-4.6-10.3-10.3-10.3h-61.8c-5.7 0-10.3-4.6-10.3-10.3" stroke="#000" stroke-width="2"/></g><g fill="none"><path d="M421.6 969.6V940h164.8v29.6z"/><path d="M586.4 940c0 5.7-4.6 10.3-10.3 10.3h-61.8c-5.7 0-10.3 4.6-10.3 10.3 0-5.7-4.6-10.3-10.3-10.3h-61.8c-5.7 0-10.3-4.6-10.3-10.3" stroke="#999" stroke-width="2"/></g><g fill="none"><path d="M596.92 969.6V940h164.8v29.6z"/><path d="M761.72 940c0 5.7-4.6 10.3-10.3 10.3h-61.8c-5.68 0-10.3 4.6-10.3 10.3 0-5.7-4.6-10.3-10.3-10.3h-61.8c-5.68 0-10.3-4.6-10.3-10.3" stroke="#999" stroke-width="2"/></g><path d="M220 740h300v60H220z" stroke="#000" stroke-opacity="0" stroke-width="2" fill="#fff" fill-opacity="0"/><use xlink:href="#F" transform="matrix(1,0,0,1,225,745) translate(0 14.4)"/><use xlink:href="#G" transform="matrix(1,0,0,1,225,745) translate(20 14.4)"/><use xlink:href="#H" transform="matrix(1,0,0,1,225,745) translate(72 14.4)"/><use xlink:href="#I" transform="matrix(1,0,0,1,225,745) translate(162.25 14.4)"/><use xlink:href="#J" transform="matrix(1,0,0,1,225,745) translate(177.75 14.4)"/><use xlink:href="#K" transform="matrix(1,0,0,1,225,745) translate(217.7 14.4)"/><use xlink:href="#L" transform="matrix(1,0,0,1,225,745) translate(243.7 14.4)"/><use xlink:href="#M" transform="matrix(1,0,0,1,225,745) translate(0 36)"/><use xlink:href="#N" transform="matrix(1,0,0,1,225,745) translate(142.75 36)"/><path d="M240 1000h580v29.6H240z" stroke="#000" stroke-opacity="0" stroke-width="2" fill="#fff" fill-opacity="0"/><use xlink:href="#O" transform="matrix(1,0,0,1,244.99999999999977,1005) translate(0 14.4)"/><use xlink:href="#P" transform="matrix(1,0,0,1,244.99999999999977,1005) translate(20 14.4)"/><use xlink:href="#Q" transform="matrix(1,0,0,1,244.99999999999977,1005) translate(60 14.4)"/><use xlink:href="#R" transform="matrix(1,0,0,1,244.99999999999977,1005) translate(118.9 14.4)"/><use xlink:href="#S" transform="matrix(1,0,0,1,244.99999999999977,1005) translate(168.9 14.4)"/><use xlink:href="#T" transform="matrix(1,0,0,1,244.99999999999977,1005) translate(188.9 14.4)"/><use xlink:href="#U" transform="matrix(1,0,0,1,244.99999999999977,1005) translate(236.85000000000002 14.4)"/><use xlink:href="#T" transform="matrix(1,0,0,1,244.99999999999977,1005) translate(256.85 14.4)"/><use xlink:href="#V" transform="matrix(1,0,0,1,244.99999999999977,1005) translate(304.8 14.4)"/><use xlink:href="#W" transform="matrix(1,0,0,1,244.99999999999977,1005) translate(319.8 14.4)"/><use xlink:href="#X" transform="matrix(1,0,0,1,244.99999999999977,1005) translate(336.8 14.4)"/><use xlink:href="#Y" transform="matrix(1,0,0,1,244.99999999999977,1005) translate(384.75 14.4)"/><use xlink:href="#Z" transform="matrix(1,0,0,1,244.99999999999977,1005) translate(399.75 14.4)"/><use xlink:href="#aa" transform="matrix(1,0,0,1,244.99999999999977,1005) translate(443.7 14.4)"/><use xlink:href="#ab" transform="matrix(1,0,0,1,244.99999999999977,1005) translate(484.6 14.4)"/><path d="M260 185.6v391.6M260 185.62v-1.03M260 577.16v1.03M261 577h20.5M261.03 577H260" stroke="#c92d39" stroke-width="2" fill="none"/><path d="M296.76 577l-14.26 4.62v-9.27z" stroke="#c92d39" stroke-width="2" fill="#c92d39"/><path d="M271.45 184.83v377M271.45 184.86v-1.03M271.45 561.8v1.03M272.45 561.63h14.5M272.47 561.63h-1.02" stroke="#00f" stroke-width="2" fill="none"/><path d="M302.2 561.63l-14.25 4.64V557z" stroke="#00f" stroke-width="2" fill="#00f"/><path d="M285 185.3v354.1M285 185.33v-1.02M285 539.37v1.03M286 539.2h.5M286.03 539.2H285" stroke="#038503" stroke-width="2" fill="none"/><path d="M301.76 539.2l-14.26 4.64v-9.28z" stroke="#038503" stroke-width="2" fill="#038503"/><path d="M320 280h340v60H320z" stroke="#000" stroke-opacity="0" stroke-width="2" fill="#fff" fill-opacity="0"/><use xlink:href="#ac" transform="matrix(1,0,0,1,325,285) translate(0 14.4)"/><use xlink:href="#ad" transform="matrix(1,0,0,1,325,285) translate(20 14.4)"/><use xlink:href="#ae" transform="matrix(1,0,0,1,325,285) translate(78.9 14.4)"/><use xlink:href="#af" transform="matrix(1,0,0,1,325,285) translate(163.85000000000002 14.4)"/><use xlink:href="#ag" transform="matrix(1,0,0,1,325,285) translate(188.85000000000002 14.4)"/><use xlink:href="#ah" transform="matrix(1,0,0,1,325,285) translate(234.75000000000003 14.4)"/><use xlink:href="#ai" transform="matrix(1,0,0,1,325,285) translate(279.70000000000005 14.4)"/><use xlink:href="#z" transform="matrix(1,0,0,1,325,285) translate(0 36)"/><use xlink:href="#aj" transform="matrix(1,0,0,1,325,285) translate(15 36)"/><use xlink:href="#ak" transform="matrix(1,0,0,1,325,285) translate(59.95 36)"/><use xlink:href="#al" transform="matrix(1,0,0,1,325,285) translate(104.95 36)"/><use xlink:href="#am" transform="matrix(1,0,0,1,325,285) translate(124.95 36)"/><use xlink:href="#an" transform="matrix(1,0,0,1,325,285) translate(149.95 36)"/><use xlink:href="#ao" transform="matrix(1,0,0,1,325,285) translate(226.89999999999998 36)"/><path d="M421.6 349h420v54h-420z" stroke="#000" stroke-opacity="0" stroke-width="2" fill="#fff" fill-opacity="0"/><use xlink:href="#ap" transform="matrix(1,0,0,1,426.5999999999997,354) translate(0 14.4)"/><use xlink:href="#aq" transform="matrix(1,0,0,1,426.5999999999997,354) translate(20 14.4)"/><use xlink:href="#ar" transform="matrix(1,0,0,1,426.5999999999997,354) translate(72.45 14.4)"/><use xlink:href="#K" transform="matrix(1,0,0,1,426.5999999999997,354) translate(186.45 14.4)"/><use xlink:href="#V" transform="matrix(1,0,0,1,426.5999999999997,354) translate(212.45 14.4)"/><use xlink:href="#as" transform="matrix(1,0,0,1,426.5999999999997,354) translate(227.45 14.4)"/><use xlink:href="#al" transform="matrix(1,0,0,1,426.5999999999997,354) translate(256.45 14.4)"/><use xlink:href="#at" transform="matrix(1,0,0,1,426.5999999999997,354) translate(276.45 14.4)"/><use xlink:href="#au" transform="matrix(1,0,0,1,426.5999999999997,354) translate(363.35 14.4)"/><use xlink:href="#av" transform="matrix(1,0,0,1,426.5999999999997,354) translate(0 36)"/><use xlink:href="#aw" transform="matrix(1,0,0,1,426.5999999999997,354) translate(100.8 36)"/><use xlink:href="#ax" transform="matrix(1,0,0,1,426.5999999999997,354) translate(124.75 36)"/><use xlink:href="#ay" transform="matrix(1,0,0,1,426.5999999999997,354) translate(153.7 36)"/><use xlink:href="#az" transform="matrix(1,0,0,1,426.5999999999997,354) translate(225.2 36)"/><use xlink:href="#as" transform="matrix(1,0,0,1,426.5999999999997,354) translate(243.14999999999998 36)"/><use xlink:href="#aA" transform="matrix(1,0,0,1,426.5999999999997,354) translate(272.15 36)"/><use xlink:href="#aB" transform="matrix(1,0,0,1,426.5999999999997,354) translate(298.09999999999997 36)"/><use xlink:href="#A" transform="matrix(1,0,0,1,426.5999999999997,354) translate(327.09999999999997 36)"/><path d="M480 426h420v54H480z" stroke="#000" stroke-opacity="0" stroke-width="2" fill="#fff" fill-opacity="0"/><use xlink:href="#aC" transform="matrix(1,0,0,1,485,431) translate(0 14.4)"/><use xlink:href="#aq" transform="matrix(1,0,0,1,485,431) translate(20 14.4)"/><use xlink:href="#aD" transform="matrix(1,0,0,1,485,431) translate(72.45 14.4)"/><use xlink:href="#K" transform="matrix(1,0,0,1,485,431) translate(186.45 14.4)"/><use xlink:href="#V" transform="matrix(1,0,0,1,485,431) translate(212.45 14.4)"/><use xlink:href="#as" transform="matrix(1,0,0,1,485,431) translate(227.45 14.4)"/><use xlink:href="#al" transform="matrix(1,0,0,1,485,431) translate(256.45 14.4)"/><use xlink:href="#at" transform="matrix(1,0,0,1,485,431) translate(276.45 14.4)"/><use xlink:href="#au" transform="matrix(1,0,0,1,485,431) translate(363.35 14.4)"/><use xlink:href="#av" transform="matrix(1,0,0,1,485,431) translate(0 36)"/><use xlink:href="#aw" transform="matrix(1,0,0,1,485,431) translate(100.8 36)"/><use xlink:href="#ax" transform="matrix(1,0,0,1,485,431) translate(124.75 36)"/><use xlink:href="#aE" transform="matrix(1,0,0,1,485,431) translate(153.7 36)"/><use xlink:href="#aF" transform="matrix(1,0,0,1,485,431) translate(171.64999999999998 36)"/><use xlink:href="#az" transform="matrix(1,0,0,1,485,431) translate(218.2 36)"/><use xlink:href="#as" transform="matrix(1,0,0,1,485,431) translate(236.14999999999998 36)"/><use xlink:href="#aA" transform="matrix(1,0,0,1,485,431) translate(265.15 36)"/><use xlink:href="#aG" transform="matrix(1,0,0,1,485,431) translate(291.09999999999997 36)"/><use xlink:href="#W" transform="matrix(1,0,0,1,485,431) translate(326.09999999999997 36)"/><use xlink:href="#aH" transform="matrix(1,0,0,1,485,431) translate(343.09999999999997 36)"/><use xlink:href="#aI" transform="matrix(1,0,0,1,485,431) translate(374.04999999999995 36)"/><use xlink:href="#aJ" transform="matrix(1,0,0,1,485,431) translate(0 57.6)"/><path d="M460 404v176h-61.5" stroke="#000" stroke-width="2" fill="none"/><path d="M461 404.03h-2V403h2z"/><path d="M383.24 580l14.26-4.64v9.28z" stroke="#000" stroke-width="2"/><path d="M500 475v82H398.5M500 475.03V474" stroke="#000" stroke-width="2" fill="none"/><path d="M383.24 557l14.26-4.64v9.28z" stroke="#000" stroke-width="2"/><path d="M499 539H398.5M498.97 539H500" stroke="#000" stroke-width="2" fill="none"/><path d="M383.24 539l14.26-4.64v9.28z" stroke="#000" stroke-width="2"/><path d="M340 739V624.5" stroke="#000" stroke-width="2" fill="none"/><path d="M341 740h-2v-1.03h2z"/><path d="M340 609.24l4.64 14.26h-9.28z" stroke="#000" stroke-width="2"/><path d="M1060 700h20v26h-20z" stroke="#000" stroke-width="2" fill="#c1e4f7"/><g><use xlink:href="#aK" transform="matrix(1,0,0,1,1065,705) translate(-0.9750000000000005 14.4)"/></g><path d="M1080 700h20v26h-20z" stroke="#000" stroke-width="2" fill="#c1e4f7"/><g><use xlink:href="#aL" transform="matrix(1,0,0,1,1085,705) translate(-0.5 14.4)"/></g><path d="M1100 700h20v26h-20z" stroke="#000" stroke-width="2" fill="#fff"/><g><use xlink:href="#aM" transform="matrix(1,0,0,1,1105,705) translate(-1.5 14.4)"/></g><path d="M1120 700h20v26h-20z" stroke="#000" stroke-width="2" fill="#c1e4f7"/><g><use xlink:href="#aN" transform="matrix(1,0,0,1,1125.0000000000005,705) translate(-0.9750000000000005 14.4)"/></g><path d="M1140 700h20v26h-20z" stroke="#000" stroke-width="2" fill="#c1e4f7"/><g><use xlink:href="#aO" transform="matrix(1,0,0,1,1145.0000000000005,705) translate(-0.5 14.4)"/></g><path d="M1160 700h20v26h-20z" stroke="#000" stroke-width="2" fill="#c1e4f7"/><g><use xlink:href="#aP" transform="matrix(1,0,0,1,1165.0000000000005,705) translate(-2.9749999999999996 14.4)"/></g><path d="M1180 700h20v26h-20z" stroke="#000" stroke-width="2" fill="#c1e4f7"/><g><use xlink:href="#aQ" transform="matrix(1,0,0,1,1185.0000000000005,705) translate(-0.9750000000000005 14.4)"/></g><path d="M1200 700h20v26h-20z" stroke="#000" stroke-width="2" fill="#c1e4f7"/><g><use xlink:href="#aR" transform="matrix(1,0,0,1,1205.0000000000005,705) translate(-0.5 14.4)"/></g><path d="M940 700h120v26H940z" stroke="#000" stroke-width="2" fill="#fff"/><g><use xlink:href="#aS" transform="matrix(1,0,0,1,945,705) translate(26.525 14.4)"/></g><path d="M820 700h120v26H820z" stroke="#000" stroke-width="2" fill="#fff"/><g><use xlink:href="#aT" transform="matrix(1,0,0,1,825,705) translate(26.525 14.4)"/></g><path d="M700 700h120v26H700z" stroke="#000" stroke-width="2" fill="#c1e4f7"/><g><use xlink:href="#aS" transform="matrix(1,0,0,1,705.0000000000002,705) translate(26.525 14.4)"/></g><path d="M1060 627h20v26h-20z" stroke="#000" stroke-width="2" fill="#c1e4f7"/><g><use xlink:href="#aK" transform="matrix(1,0,0,1,1065,632) translate(-0.9750000000000005 14.4)"/></g><path d="M1080 627h20v26h-20z" stroke="#000" stroke-width="2" fill="#c1e4f7"/><g><use xlink:href="#aL" transform="matrix(1,0,0,1,1085,632) translate(-0.5 14.4)"/></g><path d="M1100 627h20v26h-20z" stroke="#000" stroke-width="2" fill="#fff"/><g><use xlink:href="#aM" transform="matrix(1,0,0,1,1105,632) translate(-1.5 14.4)"/></g><path d="M1120 627h20v26h-20z" stroke="#000" stroke-width="2" fill="#c1e4f7"/><g><use xlink:href="#aN" transform="matrix(1,0,0,1,1125.0000000000005,632) translate(-0.9750000000000005 14.4)"/></g><path d="M1140 627h20v26h-20z" stroke="#000" stroke-width="2" fill="#fff"/><g><use xlink:href="#aO" transform="matrix(1,0,0,1,1145.0000000000005,632) translate(-0.5 14.4)"/></g><path d="M1160 627h20v26h-20z" stroke="#000" stroke-width="2" fill="#c1e4f7"/><g><use xlink:href="#aP" transform="matrix(1,0,0,1,1165.0000000000005,632) translate(-2.9749999999999996 14.4)"/></g><path d="M1180 627h20v26h-20z" stroke="#000" stroke-width="2" fill="#c1e4f7"/><g><use xlink:href="#aQ" transform="matrix(1,0,0,1,1185.0000000000005,632) translate(-0.9750000000000005 14.4)"/></g><path d="M1200 627h20v26h-20z" stroke="#000" stroke-width="2" fill="#c1e4f7"/><g><use xlink:href="#aR" transform="matrix(1,0,0,1,1205.0000000000005,632) translate(-0.5 14.4)"/></g><path d="M940 627h120v26H940z" stroke="#000" stroke-width="2" fill="#fff"/><g><use xlink:href="#aS" transform="matrix(1,0,0,1,945,632) translate(26.525 14.4)"/></g><path d="M820 627h120v26H820z" stroke="#000" stroke-width="2" fill="#fff"/><g><use xlink:href="#aT" transform="matrix(1,0,0,1,825,632) translate(26.525 14.4)"/></g><path d="M700 627h120v26H700z" stroke="#000" stroke-width="2" fill="#c1e4f7"/><g><use xlink:href="#aS" transform="matrix(1,0,0,1,705.0000000000002,632) translate(26.525 14.4)"/></g><path d="M1060 560h20v26h-20z" stroke="#000" stroke-width="2" fill="#c1e4f7"/><g><use xlink:href="#aK" transform="matrix(1,0,0,1,1064.9999999999995,565) translate(-0.9750000000000005 14.4)"/></g><path d="M1080 560h20v26h-20z" stroke="#000" stroke-width="2" fill="#c1e4f7"/><g><use xlink:href="#aL" transform="matrix(1,0,0,1,1084.9999999999995,565) translate(-0.5 14.4)"/></g><path d="M1100 560h20v26h-20z" stroke="#000" stroke-width="2" fill="#fff"/><g><use xlink:href="#aM" transform="matrix(1,0,0,1,1104.9999999999995,565) translate(-1.5 14.4)"/></g><path d="M1120 560h20v26h-20z" stroke="#000" stroke-width="2" fill="#c1e4f7"/><g><use xlink:href="#aN" transform="matrix(1,0,0,1,1125,565) translate(-0.9750000000000005 14.4)"/></g><path d="M1140 560h20v26h-20z" stroke="#000" stroke-width="2" fill="#fff"/><g><use xlink:href="#aO" transform="matrix(1,0,0,1,1145,565) translate(-0.5 14.4)"/></g><path d="M1160 560h20v26h-20z" stroke="#000" stroke-width="2" fill="#c1e4f7"/><g><use xlink:href="#aP" transform="matrix(1,0,0,1,1165,565) translate(-2.9749999999999996 14.4)"/></g><path d="M1180 560h20v26h-20z" stroke="#000" stroke-width="2" fill="#c1e4f7"/><g><use xlink:href="#aQ" transform="matrix(1,0,0,1,1185,565) translate(-0.9750000000000005 14.4)"/></g><path d="M1200 560h20v26h-20z" stroke="#000" stroke-width="2" fill="#c1e4f7"/><g><use xlink:href="#aR" transform="matrix(1,0,0,1,1205,565) translate(-0.5 14.4)"/></g><path d="M940 560h120v26H940z" stroke="#000" stroke-width="2" fill="#fff"/><g><use xlink:href="#aS" transform="matrix(1,0,0,1,944.9999999999998,565) translate(26.525 14.4)"/></g><path d="M820 560h120v26H820z" stroke="#000" stroke-width="2" fill="#fff"/><g><use xlink:href="#aT" transform="matrix(1,0,0,1,824.9999999999998,565) translate(26.525 14.4)"/></g><path d="M700 560h120v26H700z" stroke="#000" stroke-width="2" fill="#c1e4f7"/><g><use xlink:href="#aS" transform="matrix(1,0,0,1,705,565) translate(26.525 14.4)"/></g><path d="M640 747h340v26H640z" stroke="#000" stroke-opacity="0" stroke-width="2" fill="#fff" fill-opacity="0"/><g><use xlink:href="#aU" transform="matrix(1,0,0,1,645,752) translate(0 14.4)"/><use xlink:href="#aV" transform="matrix(1,0,0,1,645,752) translate(20 14.4)"/><use xlink:href="#aW" transform="matrix(1,0,0,1,645,752) translate(81.95 14.4)"/><use xlink:href="#am" transform="matrix(1,0,0,1,645,752) translate(111.75 14.4)"/><use xlink:href="#aX" transform="matrix(1,0,0,1,645,752) translate(136.75 14.4)"/><use xlink:href="#aY" transform="matrix(1,0,0,1,645,752) translate(220.65 14.4)"/><use xlink:href="#aZ" transform="matrix(1,0,0,1,645,752) translate(257.55 14.4)"/><use xlink:href="#ba" transform="matrix(1,0,0,1,645,752) translate(299.5 14.4)"/></g><path d="M1020 386h180v96.4h-180z" stroke="#000" stroke-opacity="0" stroke-width="2" fill="#fff" fill-opacity="0"/><g><use xlink:href="#bb" transform="matrix(1,0,0,1,1025,391) translate(0 14.4)"/><use xlink:href="#bc" transform="matrix(1,0,0,1,1025,391) translate(20 14.4)"/><use xlink:href="#bd" transform="matrix(1,0,0,1,1025,391) translate(86.95 14.4)"/><use xlink:href="#be" transform="matrix(1,0,0,1,1025,391) translate(0 36)"/><use xlink:href="#aW" transform="matrix(1,0,0,1,1025,391) translate(88.65 36)"/><use xlink:href="#bf" transform="matrix(1,0,0,1,1025,391) translate(118.45 36)"/><use xlink:href="#bg" transform="matrix(1,0,0,1,1025,391) translate(0 57.6)"/><use xlink:href="#al" transform="matrix(1,0,0,1,1025,391) translate(103.9 57.6)"/><use xlink:href="#bh" transform="matrix(1,0,0,1,1025,391) translate(123.9 57.6)"/><use xlink:href="#bi" transform="matrix(1,0,0,1,1025,391) translate(0 79.20000000000002)"/><use xlink:href="#bj" transform="matrix(1,0,0,1,1025,391) translate(52.95 79.20000000000002)"/></g><path d="M1200 526h300v26h-300z" stroke="#000" stroke-opacity="0" stroke-width="2" fill="#fff" fill-opacity="0"/><g><use xlink:href="#bk" transform="matrix(1,0,0,1,1205.000000000001,531) translate(0 14.4)"/><use xlink:href="#bl" transform="matrix(1,0,0,1,1205.000000000001,531) translate(147.15 14.4)"/><use xlink:href="#bm" transform="matrix(1,0,0,1,1205.000000000001,531) translate(158.1 14.4)"/></g><path d="M1200 602h300v26h-300z" stroke="#000" stroke-opacity="0" stroke-width="2" fill="#fff" fill-opacity="0"/><g><use xlink:href="#bn" transform="matrix(1,0,0,1,1205.000000000001,607) translate(0 14.4)"/><use xlink:href="#bo" transform="matrix(1,0,0,1,1205.000000000001,607) translate(147.15 14.4)"/><use xlink:href="#bp" transform="matrix(1,0,0,1,1205.000000000001,607) translate(158.1 14.4)"/></g><path d="M1200 667h300v26h-300z" stroke="#000" stroke-opacity="0" stroke-width="2" fill="#fff" fill-opacity="0"/><g><use xlink:href="#bq" transform="matrix(1,0,0,1,1205.000000000001,672) translate(0 14.4)"/><use xlink:href="#br" transform="matrix(1,0,0,1,1205.000000000001,672) translate(147.15 14.4)"/><use xlink:href="#bs" transform="matrix(1,0,0,1,1205.000000000001,672) translate(158.1 14.4)"/></g></g><g class="lucid-layer" lucid:layer-id="ZIii1RRqxdYd" display="block" stroke-width="2"><path d="M1020 222.4v296.5M1020 222.43v-1.02" stroke="#000" fill="none"/><path d="M1020 534.17l-4.64-14.27h9.28z" stroke="#000"/><path d="M521 221.4h498M521.03 221.4H520M1018.97 221.4h1.03M520 190v30.4M520 190.03V189M520 220.38v1.03M660 190.4v30.4M660 190.43v-1.02M660 220.8v1M800 191.4v30.4M800 191.43v-1.02M800 221.8v1" stroke="#000" fill="none"/><path d="M368 572.9h165.5v148.5h148M368.03 572.9H367" stroke="#c92d39" fill="none"/><path d="M696.76 721.4l-14.26 4.64v-9.27z" stroke="#c92d39" fill="#c92d39"/><path d="M368 563.4h182v80h131.5M368.03 563.4H367" stroke="#00f" fill="none"/><path d="M696.76 643.4l-14.26 4.64v-9.27z" stroke="#00f" fill="#00f"/><path d="M368 532.4h222v44h91.5M368.03 532.4H367" stroke="#038503" fill="none"/><path d="M696.76 576.4l-14.26 4.64v-9.27z" stroke="#038503" fill="#038503"/></g><defs><path fill="#c92d39" d="M137 0h-34L2-248h35l83 218 83-218h36" id="bt"/><path fill="#c92d39" d="M24-231v-30h32v30H24zM24 0v-190h32V0H24" id="bu"/><path fill="#c92d39" d="M114-163C36-179 61-72 57 0H25l-1-190h30c1 12-1 29 2 39 6-27 23-49 58-41v29" id="bv"/><path fill="#c92d39" d="M59-47c-2 24 18 29 38 22v24C64 9 27 4 27-40v-127H5v-23h24l9-43h21v43h35v23H59v120" id="bw"/><path fill="#c92d39" d="M84 4C-5 8 30-112 23-190h32v120c0 31 7 50 39 49 72-2 45-101 50-169h31l1 190h-30c-1-10 1-25-2-33-11 22-28 36-60 37" id="bx"/><path fill="#c92d39" d="M141-36C126-15 110 5 73 4 37 3 15-17 15-53c-1-64 63-63 125-63 3-35-9-54-41-54-24 1-41 7-42 31l-33-3c5-37 33-52 76-52 45 0 72 20 72 64v82c-1 20 7 32 28 27v20c-31 9-61-2-59-35zM48-53c0 20 12 33 32 33 41-3 63-29 60-74-43 2-92-5-92 41" id="by"/><path fill="#c92d39" d="M24 0v-261h32V0H24" id="bz"/><g id="a"><use transform="matrix(0.05,0,0,0.05,0,0)" xlink:href="#bt"/><use transform="matrix(0.05,0,0,0.05,11.65,0)" xlink:href="#bu"/><use transform="matrix(0.05,0,0,0.05,15.600000000000001,0)" xlink:href="#bv"/><use transform="matrix(0.05,0,0,0.05,21.55,0)" xlink:href="#bw"/><use transform="matrix(0.05,0,0,0.05,26.55,0)" xlink:href="#bx"/><use transform="matrix(0.05,0,0,0.05,36.55,0)" xlink:href="#by"/><use transform="matrix(0.05,0,0,0.05,46.55,0)" xlink:href="#bz"/></g><path fill="#c92d39" d="M85-194c31 0 48 13 60 33l-1-100h32l1 261h-30c-2-10 0-23-3-31C134-8 116 4 85 4 32 4 16-35 15-94c0-66 23-100 70-100zm9 24c-40 0-46 34-46 75 0 40 6 74 45 74 42 0 51-32 51-76 0-42-9-74-50-73" id="bA"/><path fill="#c92d39" d="M100-194c63 0 86 42 84 106H49c0 40 14 67 53 68 26 1 43-12 49-29l28 8c-11 28-37 45-77 45C44 4 14-33 15-96c1-61 26-98 85-98zm52 81c6-60-76-77-97-28-3 7-6 17-6 28h103" id="bB"/><path fill="#c92d39" d="M135-143c-3-34-86-38-87 0 15 53 115 12 119 90S17 21 10-45l28-5c4 36 97 45 98 0-10-56-113-15-118-90-4-57 82-63 122-42 12 7 21 19 24 35" id="bC"/><g id="b"><use transform="matrix(0.05,0,0,0.05,0,0)" xlink:href="#by"/><use transform="matrix(0.05,0,0,0.05,10,0)" xlink:href="#bA"/><use transform="matrix(0.05,0,0,0.05,20,0)" xlink:href="#bA"/><use transform="matrix(0.05,0,0,0.05,30,0)" xlink:href="#bv"/><use transform="matrix(0.05,0,0,0.05,35.95,0)" xlink:href="#bB"/><use transform="matrix(0.05,0,0,0.05,45.95,0)" xlink:href="#bC"/><use transform="matrix(0.05,0,0,0.05,54.95,0)" xlink:href="#bC"/></g><path fill="#c92d39" d="M18-150v-26h174v26H18zm0 90v-26h174v26H18" id="bD"/><use transform="matrix(0.05,0,0,0.05,0,0)" xlink:href="#bD" id="c"/><path fill="#c92d39" d="M101-251c68 0 85 55 85 127S166 4 100 4C33 4 14-52 14-124c0-73 17-127 87-127zm-1 229c47 0 54-49 54-102s-4-102-53-102c-51 0-55 48-55 102 0 53 5 102 54 102" id="bE"/><path fill="#c92d39" d="M141 0L90-78 38 0H4l68-98-65-92h35l48 74 47-74h35l-64 92 68 98h-35" id="bF"/><path fill="#c92d39" d="M-5 72V49h209v23H-5" id="bG"/><path fill="#c92d39" d="M16-82v-28h88v28H16" id="bH"/><path fill="#c92d39" d="M126-127c33 6 58 20 58 59 0 88-139 92-164 29-3-8-5-16-6-25l32-3c6 27 21 44 54 44 32 0 52-15 52-46 0-38-36-46-79-43v-28c39 1 72-4 72-42 0-27-17-43-46-43-28 0-47 15-49 41l-32-3c6-42 35-63 81-64 48-1 79 21 79 65 0 36-21 52-52 59" id="bI"/><path fill="#c92d39" d="M63-220v92h138v28H63V0H30v-248h175v28H63" id="bJ"/><g id="d"><use transform="matrix(0.05,0,0,0.05,0,0)" xlink:href="#bE"/><use transform="matrix(0.05,0,0,0.05,10,0)" xlink:href="#bF"/><use transform="matrix(0.05,0,0,0.05,19,0)" xlink:href="#bE"/><use transform="matrix(0.05,0,0,0.05,29,0)" xlink:href="#bE"/><use transform="matrix(0.05,0,0,0.05,39,0)" xlink:href="#bE"/><use transform="matrix(0.05,0,0,0.05,49,0)" xlink:href="#bE"/><use transform="matrix(0.05,0,0,0.05,59,0)" xlink:href="#bG"/><use transform="matrix(0.05,0,0,0.05,69,0)" xlink:href="#bE"/><use transform="matrix(0.05,0,0,0.05,79,0)" xlink:href="#bE"/><use transform="matrix(0.05,0,0,0.05,89,0)" xlink:href="#bE"/><use transform="matrix(0.05,0,0,0.05,99,0)" xlink:href="#bE"/><use transform="matrix(0.05,0,0,0.05,109,0)" xlink:href="#bH"/><use transform="matrix(0.05,0,0,0.05,114.95,0)" xlink:href="#bE"/><use transform="matrix(0.05,0,0,0.05,124.95,0)" xlink:href="#bF"/><use transform="matrix(0.05,0,0,0.05,133.95,0)" xlink:href="#bI"/><use transform="matrix(0.05,0,0,0.05,143.95,0)" xlink:href="#bJ"/><use transform="matrix(0.05,0,0,0.05,154.89999999999998,0)" xlink:href="#bJ"/><use transform="matrix(0.05,0,0,0.05,165.84999999999997,0)" xlink:href="#bJ"/><use transform="matrix(0.05,0,0,0.05,176.79999999999995,0)" xlink:href="#bG"/><use transform="matrix(0.05,0,0,0.05,186.79999999999995,0)" xlink:href="#bJ"/><use transform="matrix(0.05,0,0,0.05,197.74999999999994,0)" xlink:href="#bJ"/><use transform="matrix(0.05,0,0,0.05,208.69999999999993,0)" xlink:href="#bJ"/><use transform="matrix(0.05,0,0,0.05,219.64999999999992,0)" xlink:href="#bJ"/></g><path fill="#00f" d="M137 0h-34L2-248h35l83 218 83-218h36" id="bK"/><path fill="#00f" d="M24-231v-30h32v30H24zM24 0v-190h32V0H24" id="bL"/><path fill="#00f" d="M114-163C36-179 61-72 57 0H25l-1-190h30c1 12-1 29 2 39 6-27 23-49 58-41v29" id="bM"/><path fill="#00f" d="M59-47c-2 24 18 29 38 22v24C64 9 27 4 27-40v-127H5v-23h24l9-43h21v43h35v23H59v120" id="bN"/><path fill="#00f" d="M84 4C-5 8 30-112 23-190h32v120c0 31 7 50 39 49 72-2 45-101 50-169h31l1 190h-30c-1-10 1-25-2-33-11 22-28 36-60 37" id="bO"/><path fill="#00f" d="M141-36C126-15 110 5 73 4 37 3 15-17 15-53c-1-64 63-63 125-63 3-35-9-54-41-54-24 1-41 7-42 31l-33-3c5-37 33-52 76-52 45 0 72 20 72 64v82c-1 20 7 32 28 27v20c-31 9-61-2-59-35zM48-53c0 20 12 33 32 33 41-3 63-29 60-74-43 2-92-5-92 41" id="bP"/><path fill="#00f" d="M24 0v-261h32V0H24" id="bQ"/><g id="e"><use transform="matrix(0.05,0,0,0.05,0,0)" xlink:href="#bK"/><use transform="matrix(0.05,0,0,0.05,11.65,0)" xlink:href="#bL"/><use transform="matrix(0.05,0,0,0.05,15.600000000000001,0)" xlink:href="#bM"/><use transform="matrix(0.05,0,0,0.05,21.55,0)" xlink:href="#bN"/><use transform="matrix(0.05,0,0,0.05,26.55,0)" xlink:href="#bO"/><use transform="matrix(0.05,0,0,0.05,36.55,0)" xlink:href="#bP"/><use transform="matrix(0.05,0,0,0.05,46.55,0)" xlink:href="#bQ"/></g><path fill="#00f" d="M85-194c31 0 48 13 60 33l-1-100h32l1 261h-30c-2-10 0-23-3-31C134-8 116 4 85 4 32 4 16-35 15-94c0-66 23-100 70-100zm9 24c-40 0-46 34-46 75 0 40 6 74 45 74 42 0 51-32 51-76 0-42-9-74-50-73" id="bR"/><path fill="#00f" d="M100-194c63 0 86 42 84 106H49c0 40 14 67 53 68 26 1 43-12 49-29l28 8c-11 28-37 45-77 45C44 4 14-33 15-96c1-61 26-98 85-98zm52 81c6-60-76-77-97-28-3 7-6 17-6 28h103" id="bS"/><path fill="#00f" d="M135-143c-3-34-86-38-87 0 15 53 115 12 119 90S17 21 10-45l28-5c4 36 97 45 98 0-10-56-113-15-118-90-4-57 82-63 122-42 12 7 21 19 24 35" id="bT"/><g id="f"><use transform="matrix(0.05,0,0,0.05,0,0)" xlink:href="#bP"/><use transform="matrix(0.05,0,0,0.05,10,0)" xlink:href="#bR"/><use transform="matrix(0.05,0,0,0.05,20,0)" xlink:href="#bR"/><use transform="matrix(0.05,0,0,0.05,30,0)" xlink:href="#bM"/><use transform="matrix(0.05,0,0,0.05,35.95,0)" xlink:href="#bS"/><use transform="matrix(0.05,0,0,0.05,45.95,0)" xlink:href="#bT"/><use transform="matrix(0.05,0,0,0.05,54.95,0)" xlink:href="#bT"/></g><path fill="#00f" d="M18-150v-26h174v26H18zm0 90v-26h174v26H18" id="bU"/><use transform="matrix(0.05,0,0,0.05,0,0)" xlink:href="#bU" id="g"/><path fill="#00f" d="M101-251c68 0 85 55 85 127S166 4 100 4C33 4 14-52 14-124c0-73 17-127 87-127zm-1 229c47 0 54-49 54-102s-4-102-53-102c-51 0-55 48-55 102 0 53 5 102 54 102" id="bV"/><path fill="#00f" d="M141 0L90-78 38 0H4l68-98-65-92h35l48 74 47-74h35l-64 92 68 98h-35" id="bW"/><path fill="#00f" d="M155-56V0h-30v-56H8v-25l114-167h33v167h35v25h-35zm-30-156c-27 46-58 90-88 131h88v-131" id="bX"/><path fill="#00f" d="M-5 72V49h209v23H-5" id="bY"/><path fill="#00f" d="M16-82v-28h88v28H16" id="bZ"/><path fill="#00f" d="M64 0c3-98 48-159 88-221H18v-27h164v26C143-157 98-101 97 0H64" id="ca"/><path fill="#00f" d="M63-220v92h138v28H63V0H30v-248h175v28H63" id="cb"/><g id="h"><use transform="matrix(0.05,0,0,0.05,0,0)" xlink:href="#bV"/><use transform="matrix(0.05,0,0,0.05,10,0)" xlink:href="#bW"/><use transform="matrix(0.05,0,0,0.05,19,0)" xlink:href="#bX"/><use transform="matrix(0.05,0,0,0.05,29,0)" xlink:href="#bV"/><use transform="matrix(0.05,0,0,0.05,39,0)" xlink:href="#bV"/><use transform="matrix(0.05,0,0,0.05,49,0)" xlink:href="#bV"/><use transform="matrix(0.05,0,0,0.05,59,0)" xlink:href="#bY"/><use transform="matrix(0.05,0,0,0.05,69,0)" xlink:href="#bV"/><use transform="matrix(0.05,0,0,0.05,79,0)" xlink:href="#bV"/><use transform="matrix(0.05,0,0,0.05,89,0)" xlink:href="#bV"/><use transform="matrix(0.05,0,0,0.05,99,0)" xlink:href="#bV"/><use transform="matrix(0.05,0,0,0.05,109,0)" xlink:href="#bZ"/><use transform="matrix(0.05,0,0,0.05,114.95,0)" xlink:href="#bV"/><use transform="matrix(0.05,0,0,0.05,124.95,0)" xlink:href="#bW"/><use transform="matrix(0.05,0,0,0.05,133.95,0)" xlink:href="#ca"/><use transform="matrix(0.05,0,0,0.05,143.95,0)" xlink:href="#cb"/><use transform="matrix(0.05,0,0,0.05,154.89999999999998,0)" xlink:href="#cb"/><use transform="matrix(0.05,0,0,0.05,165.84999999999997,0)" xlink:href="#cb"/><use transform="matrix(0.05,0,0,0.05,176.79999999999995,0)" xlink:href="#bY"/><use transform="matrix(0.05,0,0,0.05,186.79999999999995,0)" xlink:href="#cb"/><use transform="matrix(0.05,0,0,0.05,197.74999999999994,0)" xlink:href="#cb"/><use transform="matrix(0.05,0,0,0.05,208.69999999999993,0)" xlink:href="#cb"/><use transform="matrix(0.05,0,0,0.05,219.64999999999992,0)" xlink:href="#cb"/></g><path fill="#038503" d="M137 0h-34L2-248h35l83 218 83-218h36" id="cc"/><path fill="#038503" d="M24-231v-30h32v30H24zM24 0v-190h32V0H24" id="cd"/><path fill="#038503" d="M114-163C36-179 61-72 57 0H25l-1-190h30c1 12-1 29 2 39 6-27 23-49 58-41v29" id="ce"/><path fill="#038503" d="M59-47c-2 24 18 29 38 22v24C64 9 27 4 27-40v-127H5v-23h24l9-43h21v43h35v23H59v120" id="cf"/><path fill="#038503" d="M84 4C-5 8 30-112 23-190h32v120c0 31 7 50 39 49 72-2 45-101 50-169h31l1 190h-30c-1-10 1-25-2-33-11 22-28 36-60 37" id="cg"/><path fill="#038503" d="M141-36C126-15 110 5 73 4 37 3 15-17 15-53c-1-64 63-63 125-63 3-35-9-54-41-54-24 1-41 7-42 31l-33-3c5-37 33-52 76-52 45 0 72 20 72 64v82c-1 20 7 32 28 27v20c-31 9-61-2-59-35zM48-53c0 20 12 33 32 33 41-3 63-29 60-74-43 2-92-5-92 41" id="ch"/><path fill="#038503" d="M24 0v-261h32V0H24" id="ci"/><g id="i"><use transform="matrix(0.05,0,0,0.05,0,0)" xlink:href="#cc"/><use transform="matrix(0.05,0,0,0.05,11.65,0)" xlink:href="#cd"/><use transform="matrix(0.05,0,0,0.05,15.600000000000001,0)" xlink:href="#ce"/><use transform="matrix(0.05,0,0,0.05,21.55,0)" xlink:href="#cf"/><use transform="matrix(0.05,0,0,0.05,26.55,0)" xlink:href="#cg"/><use transform="matrix(0.05,0,0,0.05,36.55,0)" xlink:href="#ch"/><use transform="matrix(0.05,0,0,0.05,46.55,0)" xlink:href="#ci"/></g><path fill="#038503" d="M85-194c31 0 48 13 60 33l-1-100h32l1 261h-30c-2-10 0-23-3-31C134-8 116 4 85 4 32 4 16-35 15-94c0-66 23-100 70-100zm9 24c-40 0-46 34-46 75 0 40 6 74 45 74 42 0 51-32 51-76 0-42-9-74-50-73" id="cj"/><path fill="#038503" d="M100-194c63 0 86 42 84 106H49c0 40 14 67 53 68 26 1 43-12 49-29l28 8c-11 28-37 45-77 45C44 4 14-33 15-96c1-61 26-98 85-98zm52 81c6-60-76-77-97-28-3 7-6 17-6 28h103" id="ck"/><path fill="#038503" d="M135-143c-3-34-86-38-87 0 15 53 115 12 119 90S17 21 10-45l28-5c4 36 97 45 98 0-10-56-113-15-118-90-4-57 82-63 122-42 12 7 21 19 24 35" id="cl"/><g id="j"><use transform="matrix(0.05,0,0,0.05,0,0)" xlink:href="#ch"/><use transform="matrix(0.05,0,0,0.05,10,0)" xlink:href="#cj"/><use transform="matrix(0.05,0,0,0.05,20,0)" xlink:href="#cj"/><use transform="matrix(0.05,0,0,0.05,30,0)" xlink:href="#ce"/><use transform="matrix(0.05,0,0,0.05,35.95,0)" xlink:href="#ck"/><use transform="matrix(0.05,0,0,0.05,45.95,0)" xlink:href="#cl"/><use transform="matrix(0.05,0,0,0.05,54.95,0)" xlink:href="#cl"/></g><path fill="#038503" d="M18-150v-26h174v26H18zm0 90v-26h174v26H18" id="cm"/><use transform="matrix(0.05,0,0,0.05,0,0)" xlink:href="#cm" id="k"/><path fill="#038503" d="M101-251c68 0 85 55 85 127S166 4 100 4C33 4 14-52 14-124c0-73 17-127 87-127zm-1 229c47 0 54-49 54-102s-4-102-53-102c-51 0-55 48-55 102 0 53 5 102 54 102" id="cn"/><path fill="#038503" d="M141 0L90-78 38 0H4l68-98-65-92h35l48 74 47-74h35l-64 92 68 98h-35" id="co"/><path fill="#038503" d="M134-131c28 9 52 24 51 62-1 50-34 73-85 73S17-19 16-69c0-36 21-54 49-61-75-25-45-126 34-121 46 3 78 18 79 63 0 33-17 51-44 57zm-34-11c31 1 46-15 46-44 0-28-17-43-47-42-29 0-46 13-45 42 1 28 16 44 46 44zm1 122c35 0 51-18 51-52 0-30-18-46-53-46-33 0-51 17-51 47 0 34 19 51 53 51" id="cp"/><path fill="#038503" d="M-5 72V49h209v23H-5" id="cq"/><path fill="#038503" d="M16-82v-28h88v28H16" id="cr"/><path fill="#038503" d="M160-131c35 5 61 23 61 61C221 17 115-2 30 0v-248c76 3 177-17 177 60 0 33-19 50-47 57zm-97-11c50-1 110 9 110-42 0-47-63-36-110-37v79zm0 115c55-2 124 14 124-45 0-56-70-42-124-44v89" id="cs"/><path fill="#038503" d="M63-220v92h138v28H63V0H30v-248h175v28H63" id="ct"/><g id="l"><use transform="matrix(0.05,0,0,0.05,0,0)" xlink:href="#cn"/><use transform="matrix(0.05,0,0,0.05,10,0)" xlink:href="#co"/><use transform="matrix(0.05,0,0,0.05,19,0)" xlink:href="#cp"/><use transform="matrix(0.05,0,0,0.05,29,0)" xlink:href="#cn"/><use transform="matrix(0.05,0,0,0.05,39,0)" xlink:href="#cn"/><use transform="matrix(0.05,0,0,0.05,49,0)" xlink:href="#cn"/><use transform="matrix(0.05,0,0,0.05,59,0)" xlink:href="#cq"/><use transform="matrix(0.05,0,0,0.05,69,0)" xlink:href="#cn"/><use transform="matrix(0.05,0,0,0.05,79,0)" xlink:href="#cn"/><use transform="matrix(0.05,0,0,0.05,89,0)" xlink:href="#cn"/><use transform="matrix(0.05,0,0,0.05,99,0)" xlink:href="#cn"/><use transform="matrix(0.05,0,0,0.05,109,0)" xlink:href="#cr"/><use transform="matrix(0.05,0,0,0.05,114.95,0)" xlink:href="#cn"/><use transform="matrix(0.05,0,0,0.05,124.95,0)" xlink:href="#co"/><use transform="matrix(0.05,0,0,0.05,133.95,0)" xlink:href="#cs"/><use transform="matrix(0.05,0,0,0.05,145.95,0)" xlink:href="#ct"/><use transform="matrix(0.05,0,0,0.05,156.89999999999998,0)" xlink:href="#ct"/><use transform="matrix(0.05,0,0,0.05,167.84999999999997,0)" xlink:href="#ct"/><use transform="matrix(0.05,0,0,0.05,178.79999999999995,0)" xlink:href="#cq"/><use transform="matrix(0.05,0,0,0.05,188.79999999999995,0)" xlink:href="#ct"/><use transform="matrix(0.05,0,0,0.05,199.74999999999994,0)" xlink:href="#ct"/><use transform="matrix(0.05,0,0,0.05,210.69999999999993,0)" xlink:href="#ct"/><use transform="matrix(0.05,0,0,0.05,221.64999999999992,0)" xlink:href="#ct"/></g><path fill="#c92d39" d="M30-248c87 1 191-15 191 75 0 78-77 80-158 76V0H30v-248zm33 125c57 0 124 11 124-50 0-59-68-47-124-48v98" id="cu"/><path fill="#c92d39" d="M190 0L58-211 59 0H30v-248h39L202-35l-2-213h31V0h-41" id="cv"/><path fill="#c92d39" d="M26 75v-336h71v23H56V52h41v23H26" id="cw"/><path fill="#c92d39" d="M101-251c82-7 93 87 43 132L82-64C71-53 59-42 53-27h129V0H18c2-99 128-94 128-182 0-28-16-43-45-43s-46 15-49 41l-32-3c6-41 34-60 81-64" id="cx"/><path fill="#c92d39" d="M3 75V52h41v-290H3v-23h71V75H3" id="cy"/><g id="m"><use transform="matrix(0.05,0,0,0.05,0,0)" xlink:href="#bt"/><use transform="matrix(0.05,0,0,0.05,12,0)" xlink:href="#cu"/><use transform="matrix(0.05,0,0,0.05,24,0)" xlink:href="#cv"/><use transform="matrix(0.05,0,0,0.05,36.95,0)" xlink:href="#cw"/><use transform="matrix(0.05,0,0,0.05,41.95,0)" xlink:href="#cx"/><use transform="matrix(0.05,0,0,0.05,51.95,0)" xlink:href="#cy"/><use transform="matrix(0.05,0,0,0.05,56.95,0)" xlink:href="#bD"/><use transform="matrix(0.05,0,0,0.05,67.45,0)" xlink:href="#bE"/><use transform="matrix(0.05,0,0,0.05,77.45,0)" xlink:href="#bF"/><use transform="matrix(0.05,0,0,0.05,86.45,0)" xlink:href="#bE"/></g><path fill="#00f" d="M30-248c87 1 191-15 191 75 0 78-77 80-158 76V0H30v-248zm33 125c57 0 124 11 124-50 0-59-68-47-124-48v98" id="cz"/><path fill="#00f" d="M190 0L58-211 59 0H30v-248h39L202-35l-2-213h31V0h-41" id="cA"/><path fill="#00f" d="M26 75v-336h71v23H56V52h41v23H26" id="cB"/><path fill="#00f" d="M101-251c82-7 93 87 43 132L82-64C71-53 59-42 53-27h129V0H18c2-99 128-94 128-182 0-28-16-43-45-43s-46 15-49 41l-32-3c6-41 34-60 81-64" id="cC"/><path fill="#00f" d="M3 75V52h41v-290H3v-23h71V75H3" id="cD"/><path fill="#00f" d="M27 0v-27h64v-190l-56 39v-29l58-41h29v221h61V0H27" id="cE"/><g id="n"><use transform="matrix(0.05,0,0,0.05,0,0)" xlink:href="#bK"/><use transform="matrix(0.05,0,0,0.05,12,0)" xlink:href="#cz"/><use transform="matrix(0.05,0,0,0.05,24,0)" xlink:href="#cA"/><use transform="matrix(0.05,0,0,0.05,36.95,0)" xlink:href="#cB"/><use transform="matrix(0.05,0,0,0.05,41.95,0)" xlink:href="#cC"/><use transform="matrix(0.05,0,0,0.05,51.95,0)" xlink:href="#cD"/><use transform="matrix(0.05,0,0,0.05,56.95,0)" xlink:href="#bU"/><use transform="matrix(0.05,0,0,0.05,67.45,0)" xlink:href="#bV"/><use transform="matrix(0.05,0,0,0.05,77.45,0)" xlink:href="#bW"/><use transform="matrix(0.05,0,0,0.05,86.45,0)" xlink:href="#cE"/></g><path fill="#038503" d="M30-248c87 1 191-15 191 75 0 78-77 80-158 76V0H30v-248zm33 125c57 0 124 11 124-50 0-59-68-47-124-48v98" id="cF"/><path fill="#038503" d="M190 0L58-211 59 0H30v-248h39L202-35l-2-213h31V0h-41" id="cG"/><path fill="#038503" d="M26 75v-336h71v23H56V52h41v23H26" id="cH"/><path fill="#038503" d="M101-251c82-7 93 87 43 132L82-64C71-53 59-42 53-27h129V0H18c2-99 128-94 128-182 0-28-16-43-45-43s-46 15-49 41l-32-3c6-41 34-60 81-64" id="cI"/><path fill="#038503" d="M3 75V52h41v-290H3v-23h71V75H3" id="cJ"/><g id="o"><use transform="matrix(0.05,0,0,0.05,0,0)" xlink:href="#cc"/><use transform="matrix(0.05,0,0,0.05,12,0)" xlink:href="#cF"/><use transform="matrix(0.05,0,0,0.05,24,0)" xlink:href="#cG"/><use transform="matrix(0.05,0,0,0.05,36.95,0)" xlink:href="#cH"/><use transform="matrix(0.05,0,0,0.05,41.95,0)" xlink:href="#cI"/><use transform="matrix(0.05,0,0,0.05,51.95,0)" xlink:href="#cJ"/><use transform="matrix(0.05,0,0,0.05,56.95,0)" xlink:href="#cm"/><use transform="matrix(0.05,0,0,0.05,67.45,0)" xlink:href="#cn"/><use transform="matrix(0.05,0,0,0.05,77.45,0)" xlink:href="#co"/><use transform="matrix(0.05,0,0,0.05,86.45,0)" xlink:href="#cI"/></g><path d="M137 0h-34L2-248h35l83 218 83-218h36" id="cK"/><path d="M30-248c87 1 191-15 191 75 0 78-77 80-158 76V0H30v-248zm33 125c57 0 124 11 124-50 0-59-68-47-124-48v98" id="cL"/><path d="M190 0L58-211 59 0H30v-248h39L202-35l-2-213h31V0h-41" id="cM"/><path d="M26 75v-336h71v23H56V52h41v23H26" id="cN"/><path d="M27 0v-27h64v-190l-56 39v-29l58-41h29v221h61V0H27" id="cO"/><path d="M3 75V52h41v-290H3v-23h71V75H3" id="cP"/><path d="M18-150v-26h174v26H18zm0 90v-26h174v26H18" id="cQ"/><path d="M101-251c68 0 85 55 85 127S166 4 100 4C33 4 14-52 14-124c0-73 17-127 87-127zm-1 229c47 0 54-49 54-102s-4-102-53-102c-51 0-55 48-55 102 0 53 5 102 54 102" id="cR"/><path d="M141 0L90-78 38 0H4l68-98-65-92h35l48 74 47-74h35l-64 92 68 98h-35" id="cS"/><g id="p"><use transform="matrix(0.05,0,0,0.05,0,0)" xlink:href="#cK"/><use transform="matrix(0.05,0,0,0.05,12,0)" xlink:href="#cL"/><use transform="matrix(0.05,0,0,0.05,24,0)" xlink:href="#cM"/><use transform="matrix(0.05,0,0,0.05,36.95,0)" xlink:href="#cN"/><use transform="matrix(0.05,0,0,0.05,41.95,0)" xlink:href="#cO"/><use transform="matrix(0.05,0,0,0.05,51.95,0)" xlink:href="#cP"/><use transform="matrix(0.05,0,0,0.05,56.95,0)" xlink:href="#cQ"/><use transform="matrix(0.05,0,0,0.05,67.45,0)" xlink:href="#cR"/><use transform="matrix(0.05,0,0,0.05,77.45,0)" xlink:href="#cS"/><use transform="matrix(0.05,0,0,0.05,86.45,0)" xlink:href="#cR"/></g><g id="q"><use transform="matrix(0.05,0,0,0.05,0,0)" xlink:href="#cK"/><use transform="matrix(0.05,0,0,0.05,12,0)" xlink:href="#cL"/><use transform="matrix(0.05,0,0,0.05,24,0)" xlink:href="#cM"/><use transform="matrix(0.05,0,0,0.05,36.95,0)" xlink:href="#cN"/><use transform="matrix(0.05,0,0,0.05,41.95,0)" xlink:href="#cR"/><use transform="matrix(0.05,0,0,0.05,51.95,0)" xlink:href="#cP"/><use transform="matrix(0.05,0,0,0.05,56.95,0)" xlink:href="#cQ"/><use transform="matrix(0.05,0,0,0.05,67.45,0)" xlink:href="#cR"/><use transform="matrix(0.05,0,0,0.05,77.45,0)" xlink:href="#cS"/><use transform="matrix(0.05,0,0,0.05,86.45,0)" xlink:href="#cO"/><use transform="matrix(0.05,0,0,0.05,96.45,0)" xlink:href="#cR"/></g><path d="M141-36C126-15 110 5 73 4 37 3 15-17 15-53c-1-64 63-63 125-63 3-35-9-54-41-54-24 1-41 7-42 31l-33-3c5-37 33-52 76-52 45 0 72 20 72 64v82c-1 20 7 32 28 27v20c-31 9-61-2-59-35zM48-53c0 20 12 33 32 33 41-3 63-29 60-74-43 2-92-5-92 41" id="cT"/><path d="M177-190C167-65 218 103 67 71c-23-6-38-20-44-43l32-5c15 47 100 32 89-28v-30C133-14 115 1 83 1 29 1 15-40 15-95c0-56 16-97 71-98 29-1 48 16 59 35 1-10 0-23 2-32h30zM94-22c36 0 50-32 50-73 0-42-14-75-50-75-39 0-46 34-46 75s6 73 46 73" id="cU"/><path d="M100-194c63 0 86 42 84 106H49c0 40 14 67 53 68 26 1 43-12 49-29l28 8c-11 28-37 45-77 45C44 4 14-33 15-96c1-61 26-98 85-98zm52 81c6-60-76-77-97-28-3 7-6 17-6 28h103" id="cV"/><g id="r"><use transform="matrix(0.05,0,0,0.05,0,0)" xlink:href="#cL"/><use transform="matrix(0.05,0,0,0.05,12,0)" xlink:href="#cT"/><use transform="matrix(0.05,0,0,0.05,22,0)" xlink:href="#cU"/><use transform="matrix(0.05,0,0,0.05,32,0)" xlink:href="#cV"/></g><path d="M100-194c62-1 85 37 85 99 1 63-27 99-86 99S16-35 15-95c0-66 28-99 85-99zM99-20c44 1 53-31 53-75 0-43-8-75-51-75s-53 32-53 75 10 74 51 75" id="cW"/><path d="M101-234c-31-9-42 10-38 44h38v23H63V0H32v-167H5v-23h27c-7-52 17-82 69-68v24" id="cX"/><path d="M135-143c-3-34-86-38-87 0 15 53 115 12 119 90S17 21 10-45l28-5c4 36 97 45 98 0-10-56-113-15-118-90-4-57 82-63 122-42 12 7 21 19 24 35" id="cY"/><path d="M59-47c-2 24 18 29 38 22v24C64 9 27 4 27-40v-127H5v-23h24l9-43h21v43h35v23H59v120" id="cZ"/><g id="s"><use transform="matrix(0.05,0,0,0.05,0,0)" xlink:href="#cW"/><use transform="matrix(0.05,0,0,0.05,10,0)" xlink:href="#cX"/><use transform="matrix(0.05,0,0,0.05,14.65,0)" xlink:href="#cX"/><use transform="matrix(0.05,0,0,0.05,19.65,0)" xlink:href="#cY"/><use transform="matrix(0.05,0,0,0.05,28.649999999999995,0)" xlink:href="#cV"/><use transform="matrix(0.05,0,0,0.05,38.65,0)" xlink:href="#cZ"/><use transform="matrix(0.05,0,0,0.05,43.65,0)" xlink:href="#cQ"/><use transform="matrix(0.05,0,0,0.05,54.150000000000006,0)" xlink:href="#cR"/><use transform="matrix(0.05,0,0,0.05,64.15,0)" xlink:href="#cS"/><use transform="matrix(0.05,0,0,0.05,73.15,0)" xlink:href="#cR"/></g><path fill="#fff" d="M30-248c87 1 191-15 191 75 0 78-77 80-158 76V0H30v-248zm33 125c57 0 124 11 124-50 0-59-68-47-124-48v98" id="da"/><path fill="#fff" d="M127-220V0H93v-220H8v-28h204v28h-85" id="db"/><path fill="#fff" d="M30 0v-248h187v28H63v79h144v27H63v87h162V0H30" id="dc"/><path fill="#fff" d="M101-251c68 0 85 55 85 127S166 4 100 4C33 4 14-52 14-124c0-73 17-127 87-127zm-1 229c47 0 54-49 54-102s-4-102-53-102c-51 0-55 48-55 102 0 53 5 102 54 102" id="dd"/><g id="t"><use transform="matrix(0.043827160493827164,0,0,0.043827160493827164,0,0)" xlink:href="#da"/><use transform="matrix(0.043827160493827164,0,0,0.043827160493827164,10.518518518518519,0)" xlink:href="#db"/><use transform="matrix(0.043827160493827164,0,0,0.043827160493827164,20.116666666666667,0)" xlink:href="#dc"/><use transform="matrix(0.043827160493827164,0,0,0.043827160493827164,30.635185185185186,0)" xlink:href="#dd"/></g><path fill="#fff" d="M27 0v-27h64v-190l-56 39v-29l58-41h29v221h61V0H27" id="de"/><g id="u"><use transform="matrix(0.043827160493827164,0,0,0.043827160493827164,0,0)" xlink:href="#da"/><use transform="matrix(0.043827160493827164,0,0,0.043827160493827164,10.518518518518519,0)" xlink:href="#db"/><use transform="matrix(0.043827160493827164,0,0,0.043827160493827164,20.116666666666667,0)" xlink:href="#dc"/><use transform="matrix(0.043827160493827164,0,0,0.043827160493827164,30.635185185185186,0)" xlink:href="#de"/></g><path fill="#fff" d="M101-251c82-7 93 87 43 132L82-64C71-53 59-42 53-27h129V0H18c2-99 128-94 128-182 0-28-16-43-45-43s-46 15-49 41l-32-3c6-41 34-60 81-64" id="df"/><g id="v"><use transform="matrix(0.043827160493827164,0,0,0.043827160493827164,0,0)" xlink:href="#da"/><use transform="matrix(0.043827160493827164,0,0,0.043827160493827164,10.518518518518519,0)" xlink:href="#db"/><use transform="matrix(0.043827160493827164,0,0,0.043827160493827164,20.116666666666667,0)" xlink:href="#dc"/><use transform="matrix(0.043827160493827164,0,0,0.043827160493827164,30.635185185185186,0)" xlink:href="#df"/></g><path d="M33-154v-36h34v36H33zM33 0v-36h34V0H33" id="dg"/><use transform="matrix(0.043827160493827164,0,0,0.043827160493827164,0,0)" xlink:href="#dg" id="w"/><path d="M127-220V0H93v-220H8v-28h204v28h-85" id="dh"/><path d="M30 0v-248h187v28H63v79h144v27H63v87h162V0H30" id="di"/><path d="M54-142c48-35 137-8 131 61C196 18 31 33 14-55l32-4c7 23 22 37 52 37 35-1 51-22 54-58 4-55-73-65-99-34H22l8-134h141v27H59" id="dj"/><g id="x"><use transform="matrix(0.043827160493827164,0,0,0.043827160493827164,0,0)" xlink:href="#cL"/><use transform="matrix(0.043827160493827164,0,0,0.043827160493827164,10.518518518518519,0)" xlink:href="#dh"/><use transform="matrix(0.043827160493827164,0,0,0.043827160493827164,20.116666666666667,0)" xlink:href="#di"/><use transform="matrix(0.043827160493827164,0,0,0.043827160493827164,30.635185185185186,0)" xlink:href="#dj"/><use transform="matrix(0.043827160493827164,0,0,0.043827160493827164,39.400617283950616,0)" xlink:href="#cO"/><use transform="matrix(0.043827160493827164,0,0,0.043827160493827164,46.98271604938272,0)" xlink:href="#cO"/></g><path d="M30 0v-248h33v221h125V0H30" id="dk"/><path d="M108 0H70L1-190h34L89-25l56-165h34" id="dl"/><path d="M24 0v-261h32V0H24" id="dm"/><g id="y"><use transform="matrix(0.05,0,0,0.05,0,0)" xlink:href="#dk"/><use transform="matrix(0.05,0,0,0.05,10,0)" xlink:href="#cV"/><use transform="matrix(0.05,0,0,0.05,20,0)" xlink:href="#dl"/><use transform="matrix(0.05,0,0,0.05,29,0)" xlink:href="#cV"/><use transform="matrix(0.05,0,0,0.05,39,0)" xlink:href="#dm"/></g><use transform="matrix(0.05,0,0,0.05,0,0)" xlink:href="#cO" id="z"/><g id="A"><use transform="matrix(0.05,0,0,0.05,0,0)" xlink:href="#cL"/><use transform="matrix(0.05,0,0,0.05,12,0)" xlink:href="#dh"/><use transform="matrix(0.05,0,0,0.05,22.950000000000003,0)" xlink:href="#di"/></g><path fill="#999" d="M30 0v-248h33v221h125V0H30" id="dn"/><path fill="#999" d="M100-194c63 0 86 42 84 106H49c0 40 14 67 53 68 26 1 43-12 49-29l28 8c-11 28-37 45-77 45C44 4 14-33 15-96c1-61 26-98 85-98zm52 81c6-60-76-77-97-28-3 7-6 17-6 28h103" id="do"/><path fill="#999" d="M108 0H70L1-190h34L89-25l56-165h34" id="dp"/><path fill="#999" d="M24 0v-261h32V0H24" id="dq"/><g id="B"><use transform="matrix(0.05,0,0,0.05,0,0)" xlink:href="#dn"/><use transform="matrix(0.05,0,0,0.05,10,0)" xlink:href="#do"/><use transform="matrix(0.05,0,0,0.05,20,0)" xlink:href="#dp"/><use transform="matrix(0.05,0,0,0.05,29,0)" xlink:href="#do"/><use transform="matrix(0.05,0,0,0.05,39,0)" xlink:href="#dq"/></g><path fill="#999" d="M101-251c82-7 93 87 43 132L82-64C71-53 59-42 53-27h129V0H18c2-99 128-94 128-182 0-28-16-43-45-43s-46 15-49 41l-32-3c6-41 34-60 81-64" id="dr"/><use transform="matrix(0.05,0,0,0.05,0,0)" xlink:href="#dr" id="C"/><path fill="#999" d="M30-248c87 1 191-15 191 75 0 78-77 80-158 76V0H30v-248zm33 125c57 0 124 11 124-50 0-59-68-47-124-48v98" id="ds"/><path fill="#999" d="M127-220V0H93v-220H8v-28h204v28h-85" id="dt"/><path fill="#999" d="M30 0v-248h187v28H63v79h144v27H63v87h162V0H30" id="du"/><g id="D"><use transform="matrix(0.05,0,0,0.05,0,0)" xlink:href="#ds"/><use transform="matrix(0.05,0,0,0.05,12,0)" xlink:href="#dt"/><use transform="matrix(0.05,0,0,0.05,22.950000000000003,0)" xlink:href="#du"/></g><path fill="#999" d="M126-127c33 6 58 20 58 59 0 88-139 92-164 29-3-8-5-16-6-25l32-3c6 27 21 44 54 44 32 0 52-15 52-46 0-38-36-46-79-43v-28c39 1 72-4 72-42 0-27-17-43-46-43-28 0-47 15-49 41l-32-3c6-42 35-63 81-64 48-1 79 21 79 65 0 36-21 52-52 59" id="dv"/><use transform="matrix(0.05,0,0,0.05,0,0)" xlink:href="#dv" id="E"/><path d="M155-56V0h-30v-56H8v-25l114-167h33v167h35v25h-35zm-30-156c-27 46-58 90-88 131h88v-131" id="dw"/><path d="M33 0v-38h34V0H33" id="dx"/><g id="F"><use transform="matrix(0.05,0,0,0.05,0,0)" xlink:href="#dw"/><use transform="matrix(0.05,0,0,0.05,10,0)" xlink:href="#dx"/></g><path d="M185-189c-5-48-123-54-124 2 14 75 158 14 163 119 3 78-121 87-175 55-17-10-28-26-33-46l33-7c5 56 141 63 141-1 0-78-155-14-162-118-5-82 145-84 179-34 5 7 8 16 11 25" id="dy"/><path d="M84 4C-5 8 30-112 23-190h32v120c0 31 7 50 39 49 72-2 45-101 50-169h31l1 190h-30c-1-10 1-25-2-33-11 22-28 36-60 37" id="dz"/><path d="M115-194c55 1 70 41 70 98S169 2 115 4C84 4 66-9 55-30l1 105H24l-1-265h31l2 30c10-21 28-34 59-34zm-8 174c40 0 45-34 45-75s-6-73-45-74c-42 0-51 32-51 76 0 43 10 73 51 73" id="dA"/><g id="G"><use transform="matrix(0.05,0,0,0.05,0,0)" xlink:href="#dy"/><use transform="matrix(0.05,0,0,0.05,12,0)" xlink:href="#cV"/><use transform="matrix(0.05,0,0,0.05,22,0)" xlink:href="#cZ"/><use transform="matrix(0.05,0,0,0.05,27,0)" xlink:href="#dz"/><use transform="matrix(0.05,0,0,0.05,37,0)" xlink:href="#dA"/></g><path d="M205 0l-28-72H64L36 0H1l101-248h38L239 0h-34zm-38-99l-47-123c-12 45-31 82-46 123h93" id="dB"/><g id="H"><use transform="matrix(0.05,0,0,0.05,0,0)" xlink:href="#dy"/><use transform="matrix(0.05,0,0,0.05,12,0)" xlink:href="#dB"/><use transform="matrix(0.05,0,0,0.05,22.65,0)" xlink:href="#dh"/><use transform="matrix(0.05,0,0,0.05,33.6,0)" xlink:href="#cL"/><use transform="matrix(0.05,0,0,0.05,43.3,0)" xlink:href="#dx"/><use transform="matrix(0.05,0,0,0.05,48.3,0)" xlink:href="#cL"/><use transform="matrix(0.05,0,0,0.05,60.29999999999999,0)" xlink:href="#cL"/><use transform="matrix(0.05,0,0,0.05,72.3,0)" xlink:href="#cM"/></g><use transform="matrix(0.05,0,0,0.05,0,0)" xlink:href="#cQ" id="I"/><g id="J"><use transform="matrix(0.05,0,0,0.05,0,0)" xlink:href="#cL"/><use transform="matrix(0.05,0,0,0.05,12,0)" xlink:href="#dh"/><use transform="matrix(0.05,0,0,0.05,22.950000000000003,0)" xlink:href="#di"/></g><path d="M18-27v-27l151-64-151-65v-27l175 74v36" id="dC"/><g id="K"><use transform="matrix(0.05,0,0,0.05,0,0)" xlink:href="#dC"/><use transform="matrix(0.05,0,0,0.05,10.5,0)" xlink:href="#dC"/></g><path d="M101-251c82-7 93 87 43 132L82-64C71-53 59-42 53-27h129V0H18c2-99 128-94 128-182 0-28-16-43-45-43s-46 15-49 41l-32-3c6-41 34-60 81-64" id="dD"/><path d="M68-38c1 34 0 65-14 84H32c9-13 17-26 17-46H33v-38h35" id="dE"/><g id="L"><use transform="matrix(0.05,0,0,0.05,0,0)" xlink:href="#cO"/><use transform="matrix(0.05,0,0,0.05,10,0)" xlink:href="#dD"/><use transform="matrix(0.05,0,0,0.05,20,0)" xlink:href="#dE"/></g><path d="M240 0l2-218c-23 76-54 145-80 218h-23L58-218 59 0H30v-248h44l77 211c21-75 51-140 76-211h43V0h-30" id="dF"/><path d="M85-194c31 0 48 13 60 33l-1-100h32l1 261h-30c-2-10 0-23-3-31C134-8 116 4 85 4 32 4 16-35 15-94c0-66 23-100 70-100zm9 24c-40 0-46 34-46 75 0 40 6 74 45 74 42 0 51-32 51-76 0-42-9-74-50-73" id="dG"/><path d="M134-131c28 9 52 24 51 62-1 50-34 73-85 73S17-19 16-69c0-36 21-54 49-61-75-25-45-126 34-121 46 3 78 18 79 63 0 33-17 51-44 57zm-34-11c31 1 46-15 46-44 0-28-17-43-47-42-29 0-46 13-45 42 1 28 16 44 46 44zm1 122c35 0 51-18 51-52 0-30-18-46-53-46-33 0-51 17-51 47 0 34 19 51 53 51" id="dH"/><g id="M"><use transform="matrix(0.05,0,0,0.05,0,0)" xlink:href="#dy"/><use transform="matrix(0.05,0,0,0.05,12,0)" xlink:href="#dB"/><use transform="matrix(0.05,0,0,0.05,22.65,0)" xlink:href="#dh"/><use transform="matrix(0.05,0,0,0.05,33.6,0)" xlink:href="#cL"/><use transform="matrix(0.05,0,0,0.05,43.3,0)" xlink:href="#dx"/><use transform="matrix(0.05,0,0,0.05,48.3,0)" xlink:href="#dF"/><use transform="matrix(0.05,0,0,0.05,63.25,0)" xlink:href="#cW"/><use transform="matrix(0.05,0,0,0.05,73.25,0)" xlink:href="#dG"/><use transform="matrix(0.05,0,0,0.05,83.25,0)" xlink:href="#cV"/><use transform="matrix(0.05,0,0,0.05,93.25,0)" xlink:href="#cQ"/><use transform="matrix(0.05,0,0,0.05,103.75,0)" xlink:href="#cR"/><use transform="matrix(0.05,0,0,0.05,113.75,0)" xlink:href="#cS"/><use transform="matrix(0.05,0,0,0.05,122.75,0)" xlink:href="#dH"/><use transform="matrix(0.05,0,0,0.05,132.75,0)" xlink:href="#dE"/></g><path d="M33 0v-248h34V0H33" id="dI"/><path d="M30-248c118-7 216 8 213 122C240-48 200 0 122 0H30v-248zM63-27c89 8 146-16 146-99s-60-101-146-95v194" id="dJ"/><g id="N"><use transform="matrix(0.05,0,0,0.05,0,0)" xlink:href="#dB"/><use transform="matrix(0.05,0,0,0.05,12,0)" xlink:href="#dy"/><use transform="matrix(0.05,0,0,0.05,24,0)" xlink:href="#dI"/><use transform="matrix(0.05,0,0,0.05,29,0)" xlink:href="#dJ"/><use transform="matrix(0.05,0,0,0.05,41.95,0)" xlink:href="#cQ"/><use transform="matrix(0.05,0,0,0.05,52.45,0)" xlink:href="#cR"/></g><g id="O"><use transform="matrix(0.05,0,0,0.05,0,0)" xlink:href="#dj"/><use transform="matrix(0.05,0,0,0.05,10,0)" xlink:href="#dx"/></g><g id="P"><use transform="matrix(0.05,0,0,0.05,0,0)" xlink:href="#dk"/><use transform="matrix(0.05,0,0,0.05,10,0)" xlink:href="#cV"/><use transform="matrix(0.05,0,0,0.05,20,0)" xlink:href="#cT"/><use transform="matrix(0.05,0,0,0.05,30,0)" xlink:href="#cX"/></g><path d="M117-194c89-4 53 116 60 194h-32v-121c0-31-8-49-39-48C34-167 62-67 57 0H25l-1-190h30c1 10-1 24 2 32 11-22 29-35 61-36" id="dK"/><path d="M114-163C36-179 61-72 57 0H25l-1-190h30c1 12-1 29 2 39 6-27 23-49 58-41v29" id="dL"/><path d="M24-231v-30h32v30H24zM24 0v-190h32V0H24" id="dM"/><g id="Q"><use transform="matrix(0.05,0,0,0.05,0,0)" xlink:href="#cV"/><use transform="matrix(0.05,0,0,0.05,10,0)" xlink:href="#dK"/><use transform="matrix(0.05,0,0,0.05,20,0)" xlink:href="#cZ"/><use transform="matrix(0.05,0,0,0.05,25,0)" xlink:href="#dL"/><use transform="matrix(0.05,0,0,0.05,30.950000000000003,0)" xlink:href="#dM"/><use transform="matrix(0.05,0,0,0.05,34.9,0)" xlink:href="#cV"/><use transform="matrix(0.05,0,0,0.05,44.9,0)" xlink:href="#cY"/></g><g id="R"><use transform="matrix(0.05,0,0,0.05,0,0)" xlink:href="#cX"/><use transform="matrix(0.05,0,0,0.05,5,0)" xlink:href="#cW"/><use transform="matrix(0.05,0,0,0.05,15,0)" xlink:href="#dz"/><use transform="matrix(0.05,0,0,0.05,25,0)" xlink:href="#dK"/><use transform="matrix(0.05,0,0,0.05,35,0)" xlink:href="#dG"/></g><g id="S"><use transform="matrix(0.05,0,0,0.05,0,0)" xlink:href="#cT"/><use transform="matrix(0.05,0,0,0.05,10,0)" xlink:href="#cZ"/></g><g id="T"><use transform="matrix(0.05,0,0,0.05,0,0)" xlink:href="#dk"/><use transform="matrix(0.05,0,0,0.05,10,0)" xlink:href="#cV"/><use transform="matrix(0.05,0,0,0.05,20,0)" xlink:href="#dl"/><use transform="matrix(0.05,0,0,0.05,29,0)" xlink:href="#cV"/><use transform="matrix(0.05,0,0,0.05,39,0)" xlink:href="#dm"/></g><g id="U"><use transform="matrix(0.05,0,0,0.05,0,0)" xlink:href="#cO"/><use transform="matrix(0.05,0,0,0.05,10,0)" xlink:href="#dE"/></g><use transform="matrix(0.05,0,0,0.05,0,0)" xlink:href="#dD" id="V"/><path d="M234-2c-28 10-62 0-77-18C117 19 8 12 13-65c3-43 29-61 60-76-25-40-17-114 47-108 35 3 59 15 59 50 0 44-40 53-71 69 14 26 32 50 51 72 14-21 24-43 30-72l26 8c-9 33-21 57-38 82 13 13 33 22 57 15v23zM97-151c25-10 52-18 56-48-1-18-13-29-33-29-42 0-39 50-23 77zM42-66c-3 51 71 58 98 28-20-24-41-51-56-80-23 10-40 24-42 52" id="dN"/><use transform="matrix(0.05,0,0,0.05,0,0)" xlink:href="#dN" id="W"/><g id="X"><use transform="matrix(0.05,0,0,0.05,0,0)" xlink:href="#dk"/><use transform="matrix(0.05,0,0,0.05,10,0)" xlink:href="#cT"/><use transform="matrix(0.05,0,0,0.05,20,0)" xlink:href="#dl"/><use transform="matrix(0.05,0,0,0.05,29,0)" xlink:href="#cV"/><use transform="matrix(0.05,0,0,0.05,39,0)" xlink:href="#dm"/></g><path d="M126-127c33 6 58 20 58 59 0 88-139 92-164 29-3-8-5-16-6-25l32-3c6 27 21 44 54 44 32 0 52-15 52-46 0-38-36-46-79-43v-28c39 1 72-4 72-42 0-27-17-43-46-43-28 0-47 15-49 41l-32-3c6-42 35-63 81-64 48-1 79 21 79 65 0 36-21 52-52 59" id="dO"/><use transform="matrix(0.05,0,0,0.05,0,0)" xlink:href="#dO" id="Y"/><path d="M115-194c53 0 69 39 70 98 0 66-23 100-70 100C84 3 66-7 56-30L54 0H23l1-261h32v101c10-23 28-34 59-34zm-8 174c40 0 45-34 45-75 0-40-5-75-45-74-42 0-51 32-51 76 0 43 10 73 51 73" id="dP"/><g id="Z"><use transform="matrix(0.05,0,0,0.05,0,0)" xlink:href="#cZ"/><use transform="matrix(0.05,0,0,0.05,5,0)" xlink:href="#cT"/><use transform="matrix(0.05,0,0,0.05,15,0)" xlink:href="#dP"/><use transform="matrix(0.05,0,0,0.05,25,0)" xlink:href="#dm"/><use transform="matrix(0.05,0,0,0.05,28.950000000000003,0)" xlink:href="#cV"/></g><path d="M206 0h-36l-40-164L89 0H53L-1-190h32L70-26l43-164h34l41 164 42-164h31" id="dQ"/><path d="M143 0L79-87 56-68V0H24v-261h32v163l83-92h37l-77 82L181 0h-38" id="dR"/><g id="aa"><use transform="matrix(0.05,0,0,0.05,0,0)" xlink:href="#dQ"/><use transform="matrix(0.05,0,0,0.05,12.950000000000001,0)" xlink:href="#cT"/><use transform="matrix(0.05,0,0,0.05,22.950000000000003,0)" xlink:href="#dm"/><use transform="matrix(0.05,0,0,0.05,26.900000000000002,0)" xlink:href="#dR"/></g><g id="ab"><use transform="matrix(0.05,0,0,0.05,0,0)" xlink:href="#cT"/><use transform="matrix(0.05,0,0,0.05,10,0)" xlink:href="#dl"/><use transform="matrix(0.05,0,0,0.05,19,0)" xlink:href="#cW"/><use transform="matrix(0.05,0,0,0.05,29,0)" xlink:href="#dM"/><use transform="matrix(0.05,0,0,0.05,32.95,0)" xlink:href="#dG"/><use transform="matrix(0.05,0,0,0.05,42.95,0)" xlink:href="#cV"/><use transform="matrix(0.05,0,0,0.05,52.95,0)" xlink:href="#dG"/></g><g id="ac"><use transform="matrix(0.05,0,0,0.05,0,0)" xlink:href="#cO"/><use transform="matrix(0.05,0,0,0.05,10,0)" xlink:href="#dx"/></g><path d="M212-179c-10-28-35-45-73-45-59 0-87 40-87 99 0 60 29 101 89 101 43 0 62-24 78-52l27 14C228-24 195 4 139 4 59 4 22-46 18-125c-6-104 99-153 187-111 19 9 31 26 39 46" id="dS"/><g id="ad"><use transform="matrix(0.05,0,0,0.05,0,0)" xlink:href="#dS"/><use transform="matrix(0.05,0,0,0.05,12.950000000000001,0)" xlink:href="#dL"/><use transform="matrix(0.05,0,0,0.05,18.900000000000002,0)" xlink:href="#cV"/><use transform="matrix(0.05,0,0,0.05,28.900000000000002,0)" xlink:href="#cT"/><use transform="matrix(0.05,0,0,0.05,38.900000000000006,0)" xlink:href="#cZ"/><use transform="matrix(0.05,0,0,0.05,43.900000000000006,0)" xlink:href="#cV"/></g><g id="ae"><use transform="matrix(0.05,0,0,0.05,0,0)" xlink:href="#cL"/><use transform="matrix(0.05,0,0,0.05,12,0)" xlink:href="#dh"/><use transform="matrix(0.05,0,0,0.05,22.950000000000003,0)" xlink:href="#di"/><use transform="matrix(0.05,0,0,0.05,34.95,0)" xlink:href="#cN"/><use transform="matrix(0.05,0,0,0.05,39.95,0)" xlink:href="#dj"/><use transform="matrix(0.05,0,0,0.05,49.95,0)" xlink:href="#cO"/><use transform="matrix(0.05,0,0,0.05,59.95,0)" xlink:href="#dD"/><use transform="matrix(0.05,0,0,0.05,69.95,0)" xlink:href="#cP"/><use transform="matrix(0.05,0,0,0.05,74.95,0)" xlink:href="#dE"/></g><g id="af"><use transform="matrix(0.05,0,0,0.05,0,0)" xlink:href="#cT"/><use transform="matrix(0.05,0,0,0.05,10,0)" xlink:href="#dK"/></g><path d="M179-190L93 31C79 59 56 82 12 73V49c39 6 53-20 64-50L1-190h34L92-34l54-156h33" id="dT"/><g id="ag"><use transform="matrix(0.05,0,0,0.05,0,0)" xlink:href="#cT"/><use transform="matrix(0.05,0,0,0.05,10,0)" xlink:href="#dL"/><use transform="matrix(0.05,0,0,0.05,15.949999999999998,0)" xlink:href="#dL"/><use transform="matrix(0.05,0,0,0.05,21.9,0)" xlink:href="#cT"/><use transform="matrix(0.05,0,0,0.05,31.899999999999995,0)" xlink:href="#dT"/></g><g id="ah"><use transform="matrix(0.05,0,0,0.05,0,0)" xlink:href="#cY"/><use transform="matrix(0.05,0,0,0.05,9,0)" xlink:href="#cZ"/><use transform="matrix(0.05,0,0,0.05,14,0)" xlink:href="#cW"/><use transform="matrix(0.05,0,0,0.05,24,0)" xlink:href="#dL"/><use transform="matrix(0.05,0,0,0.05,29.950000000000003,0)" xlink:href="#cV"/></g><g id="ai"><use transform="matrix(0.05,0,0,0.05,0,0)" xlink:href="#dk"/><use transform="matrix(0.05,0,0,0.05,10,0)" xlink:href="#cV"/><use transform="matrix(0.05,0,0,0.05,20,0)" xlink:href="#dl"/><use transform="matrix(0.05,0,0,0.05,29,0)" xlink:href="#cV"/><use transform="matrix(0.05,0,0,0.05,39,0)" xlink:href="#dm"/></g><g id="aj"><use transform="matrix(0.05,0,0,0.05,0,0)" xlink:href="#cL"/><use transform="matrix(0.05,0,0,0.05,12,0)" xlink:href="#dh"/><use transform="matrix(0.05,0,0,0.05,22.950000000000003,0)" xlink:href="#di"/><use transform="matrix(0.05,0,0,0.05,34.95,0)" xlink:href="#dE"/></g><g id="ak"><use transform="matrix(0.05,0,0,0.05,0,0)" xlink:href="#dK"/><use transform="matrix(0.05,0,0,0.05,10,0)" xlink:href="#cV"/><use transform="matrix(0.05,0,0,0.05,20,0)" xlink:href="#cV"/><use transform="matrix(0.05,0,0,0.05,30,0)" xlink:href="#dG"/></g><g id="al"><use transform="matrix(0.05,0,0,0.05,0,0)" xlink:href="#cZ"/><use transform="matrix(0.05,0,0,0.05,5,0)" xlink:href="#cW"/></g><g id="am"><use transform="matrix(0.05,0,0,0.05,0,0)" xlink:href="#dP"/><use transform="matrix(0.05,0,0,0.05,10,0)" xlink:href="#cV"/></g><path d="M9 0v-24l116-142H16v-24h144v24L44-24h123V0H9" id="dU"/><g id="an"><use transform="matrix(0.05,0,0,0.05,0,0)" xlink:href="#dA"/><use transform="matrix(0.05,0,0,0.05,10,0)" xlink:href="#cT"/><use transform="matrix(0.05,0,0,0.05,20,0)" xlink:href="#cU"/><use transform="matrix(0.05,0,0,0.05,30,0)" xlink:href="#cV"/><use transform="matrix(0.05,0,0,0.05,40,0)" xlink:href="#cY"/><use transform="matrix(0.05,0,0,0.05,49,0)" xlink:href="#dM"/><use transform="matrix(0.05,0,0,0.05,52.95,0)" xlink:href="#dU"/><use transform="matrix(0.05,0,0,0.05,61.95,0)" xlink:href="#cV"/></g><g id="ao"><use transform="matrix(0.05,0,0,0.05,0,0)" xlink:href="#cT"/><use transform="matrix(0.05,0,0,0.05,10,0)" xlink:href="#dm"/><use transform="matrix(0.05,0,0,0.05,13.949999999999998,0)" xlink:href="#dM"/><use transform="matrix(0.05,0,0,0.05,17.9,0)" xlink:href="#cU"/><use transform="matrix(0.05,0,0,0.05,27.899999999999995,0)" xlink:href="#dK"/><use transform="matrix(0.05,0,0,0.05,37.9,0)" xlink:href="#cV"/><use transform="matrix(0.05,0,0,0.05,47.9,0)" xlink:href="#dG"/></g><g id="ap"><use transform="matrix(0.05,0,0,0.05,0,0)" xlink:href="#dD"/><use transform="matrix(0.05,0,0,0.05,10,0)" xlink:href="#dx"/></g><g id="aq"><use transform="matrix(0.05,0,0,0.05,0,0)" xlink:href="#cL"/><use transform="matrix(0.05,0,0,0.05,12,0)" xlink:href="#cL"/><use transform="matrix(0.05,0,0,0.05,24,0)" xlink:href="#cM"/><use transform="matrix(0.05,0,0,0.05,36.95,0)" xlink:href="#cQ"/></g><path d="M-5 72V49h209v23H-5" id="dV"/><g id="ar"><use transform="matrix(0.05,0,0,0.05,0,0)" xlink:href="#cR"/><use transform="matrix(0.05,0,0,0.05,10,0)" xlink:href="#cS"/><use transform="matrix(0.05,0,0,0.05,19,0)" xlink:href="#cR"/><use transform="matrix(0.05,0,0,0.05,29,0)" xlink:href="#cR"/><use transform="matrix(0.05,0,0,0.05,39,0)" xlink:href="#cR"/><use transform="matrix(0.05,0,0,0.05,49,0)" xlink:href="#cR"/><use transform="matrix(0.05,0,0,0.05,59,0)" xlink:href="#dV"/><use transform="matrix(0.05,0,0,0.05,69,0)" xlink:href="#cR"/><use transform="matrix(0.05,0,0,0.05,79,0)" xlink:href="#cR"/><use transform="matrix(0.05,0,0,0.05,89,0)" xlink:href="#cR"/><use transform="matrix(0.05,0,0,0.05,99,0)" xlink:href="#cR"/></g><g id="as"><use transform="matrix(0.05,0,0,0.05,0,0)" xlink:href="#cY"/><use transform="matrix(0.05,0,0,0.05,9,0)" xlink:href="#cV"/><use transform="matrix(0.05,0,0,0.05,19,0)" xlink:href="#cZ"/></g><g id="at"><use transform="matrix(0.05,0,0,0.05,0,0)" xlink:href="#cL"/><use transform="matrix(0.05,0,0,0.05,12,0)" xlink:href="#dh"/><use transform="matrix(0.05,0,0,0.05,22.950000000000003,0)" xlink:href="#di"/><use transform="matrix(0.05,0,0,0.05,34.95,0)" xlink:href="#dx"/><use transform="matrix(0.05,0,0,0.05,39.95,0)" xlink:href="#cL"/><use transform="matrix(0.05,0,0,0.05,51.95,0)" xlink:href="#cL"/><use transform="matrix(0.05,0,0,0.05,63.95,0)" xlink:href="#cM"/><use transform="matrix(0.05,0,0,0.05,76.9,0)" xlink:href="#dE"/></g><g id="au"><use transform="matrix(0.05,0,0,0.05,0,0)" xlink:href="#cT"/><use transform="matrix(0.05,0,0,0.05,10,0)" xlink:href="#dK"/><use transform="matrix(0.05,0,0,0.05,20,0)" xlink:href="#dG"/></g><path d="M210-169c-67 3-38 105-44 169h-31v-121c0-29-5-50-35-48C34-165 62-65 56 0H25l-1-190h30c1 10-1 24 2 32 10-44 99-50 107 0 11-21 27-35 58-36 85-2 47 119 55 194h-31v-121c0-29-5-49-35-48" id="dW"/><g id="av"><use transform="matrix(0.05,0,0,0.05,0,0)" xlink:href="#dA"/><use transform="matrix(0.05,0,0,0.05,10,0)" xlink:href="#cV"/><use transform="matrix(0.05,0,0,0.05,20,0)" xlink:href="#dL"/><use transform="matrix(0.05,0,0,0.05,25.950000000000003,0)" xlink:href="#dW"/><use transform="matrix(0.05,0,0,0.05,40.9,0)" xlink:href="#dM"/><use transform="matrix(0.05,0,0,0.05,44.85,0)" xlink:href="#cY"/><use transform="matrix(0.05,0,0,0.05,53.85,0)" xlink:href="#cY"/><use transform="matrix(0.05,0,0,0.05,62.85,0)" xlink:href="#cY"/><use transform="matrix(0.05,0,0,0.05,71.85,0)" xlink:href="#dM"/><use transform="matrix(0.05,0,0,0.05,75.8,0)" xlink:href="#cW"/><use transform="matrix(0.05,0,0,0.05,85.8,0)" xlink:href="#dK"/></g><g id="aw"><use transform="matrix(0.05,0,0,0.05,0,0)" xlink:href="#dP"/><use transform="matrix(0.05,0,0,0.05,10,0)" xlink:href="#dM"/><use transform="matrix(0.05,0,0,0.05,13.949999999999998,0)" xlink:href="#cZ"/></g><g id="ax"><use transform="matrix(0.05,0,0,0.05,0,0)" xlink:href="#dJ"/><use transform="matrix(0.05,0,0,0.05,12.950000000000001,0)" xlink:href="#dB"/></g><path d="M232-93c-1 65-40 97-104 97C67 4 28-28 28-90v-158h33c8 89-33 224 67 224 102 0 64-133 71-224h33v155" id="dX"/><path d="M195 0l-74-108L45 0H8l94-129-87-119h37l69 98 67-98h37l-84 118L233 0h-38" id="dY"/><path d="M266 0h-40l-56-210L115 0H75L2-248h35L96-30l15-64 43-154h32l59 218 59-218h35" id="dZ"/><path d="M233-177c-1 41-23 64-60 70L243 0h-38l-65-103H63V0H30v-248c88 3 205-21 203 71zM63-129c60-2 137 13 137-47 0-61-80-42-137-45v92" id="ea"/><g id="ay"><use transform="matrix(0.05,0,0,0.05,0,0)" xlink:href="#dX"/><use transform="matrix(0.05,0,0,0.05,12.950000000000001,0)" xlink:href="#dY"/><use transform="matrix(0.05,0,0,0.05,24.950000000000003,0)" xlink:href="#dZ"/><use transform="matrix(0.05,0,0,0.05,41.900000000000006,0)" xlink:href="#ea"/><use transform="matrix(0.05,0,0,0.05,54.5,0)" xlink:href="#cK"/></g><g id="az"><use transform="matrix(0.05,0,0,0.05,0,0)" xlink:href="#dM"/><use transform="matrix(0.05,0,0,0.05,3.95,0)" xlink:href="#cY"/></g><g id="aA"><use transform="matrix(0.05,0,0,0.05,0,0)" xlink:href="#cX"/><use transform="matrix(0.05,0,0,0.05,5,0)" xlink:href="#cW"/><use transform="matrix(0.05,0,0,0.05,15,0)" xlink:href="#dL"/></g><g id="aB"><use transform="matrix(0.05,0,0,0.05,0,0)" xlink:href="#cO"/><use transform="matrix(0.05,0,0,0.05,10,0)" xlink:href="#cY"/><use transform="matrix(0.05,0,0,0.05,19,0)" xlink:href="#cZ"/></g><g id="aC"><use transform="matrix(0.05,0,0,0.05,0,0)" xlink:href="#dO"/><use transform="matrix(0.05,0,0,0.05,10,0)" xlink:href="#dx"/></g><g id="aD"><use transform="matrix(0.05,0,0,0.05,0,0)" xlink:href="#cR"/><use transform="matrix(0.05,0,0,0.05,10,0)" xlink:href="#cS"/><use transform="matrix(0.05,0,0,0.05,19,0)" xlink:href="#dH"/><use transform="matrix(0.05,0,0,0.05,29,0)" xlink:href="#cR"/><use transform="matrix(0.05,0,0,0.05,39,0)" xlink:href="#cR"/><use transform="matrix(0.05,0,0,0.05,49,0)" xlink:href="#cR"/><use transform="matrix(0.05,0,0,0.05,59,0)" xlink:href="#dV"/><use transform="matrix(0.05,0,0,0.05,69,0)" xlink:href="#cR"/><use transform="matrix(0.05,0,0,0.05,79,0)" xlink:href="#cR"/><use transform="matrix(0.05,0,0,0.05,89,0)" xlink:href="#cR"/><use transform="matrix(0.05,0,0,0.05,99,0)" xlink:href="#cR"/></g><use transform="matrix(0.05,0,0,0.05,0,0)" xlink:href="#dX" id="aE"/><g id="aF"><use transform="matrix(0.05,0,0,0.05,0,0)" xlink:href="#dZ"/><use transform="matrix(0.05,0,0,0.05,16.95,0)" xlink:href="#ea"/><use transform="matrix(0.05,0,0,0.05,29.549999999999997,0)" xlink:href="#cK"/></g><g id="aG"><use transform="matrix(0.05,0,0,0.05,0,0)" xlink:href="#dD"/><use transform="matrix(0.05,0,0,0.05,10,0)" xlink:href="#dK"/><use transform="matrix(0.05,0,0,0.05,20,0)" xlink:href="#dG"/></g><g id="aH"><use transform="matrix(0.05,0,0,0.05,0,0)" xlink:href="#dO"/><use transform="matrix(0.05,0,0,0.05,10,0)" xlink:href="#dL"/><use transform="matrix(0.05,0,0,0.05,15.949999999999998,0)" xlink:href="#dG"/></g><g id="aI"><use transform="matrix(0.05,0,0,0.05,0,0)" xlink:href="#cL"/><use transform="matrix(0.05,0,0,0.05,12,0)" xlink:href="#dh"/><use transform="matrix(0.05,0,0,0.05,22.950000000000003,0)" xlink:href="#di"/></g><use transform="matrix(0.05,0,0,0.05,0,0)" xlink:href="#dJ" id="aK"/><use transform="matrix(0.05,0,0,0.05,0,0)" xlink:href="#dB" id="aL"/><path d="M143 4C61 4 22-44 18-125c-5-107 100-154 193-111 17 8 29 25 37 43l-32 9c-13-25-37-40-76-40-61 0-88 39-88 99 0 61 29 100 91 101 35 0 62-11 79-27v-45h-74v-28h105v86C228-13 192 4 143 4" id="eb"/><use transform="matrix(0.05,0,0,0.05,0,0)" xlink:href="#eb" id="aM"/><use transform="matrix(0.05,0,0,0.05,0,0)" xlink:href="#dX" id="aN"/><use transform="matrix(0.05,0,0,0.05,0,0)" xlink:href="#dY" id="aO"/><use transform="matrix(0.05,0,0,0.05,0,0)" xlink:href="#dZ" id="aP"/><use transform="matrix(0.05,0,0,0.05,0,0)" xlink:href="#ea" id="aQ"/><use transform="matrix(0.05,0,0,0.05,0,0)" xlink:href="#cK" id="aR"/><g id="aS"><use transform="matrix(0.05,0,0,0.05,0,0)" xlink:href="#cL"/><use transform="matrix(0.05,0,0,0.05,12,0)" xlink:href="#cL"/><use transform="matrix(0.05,0,0,0.05,24,0)" xlink:href="#cM"/><use transform="matrix(0.05,0,0,0.05,36.95,0)" xlink:href="#cN"/><use transform="matrix(0.05,0,0,0.05,41.95,0)" xlink:href="#cR"/><use transform="matrix(0.05,0,0,0.05,51.95,0)" xlink:href="#cP"/></g><g id="aT"><use transform="matrix(0.05,0,0,0.05,0,0)" xlink:href="#cL"/><use transform="matrix(0.05,0,0,0.05,12,0)" xlink:href="#cL"/><use transform="matrix(0.05,0,0,0.05,24,0)" xlink:href="#cM"/><use transform="matrix(0.05,0,0,0.05,36.95,0)" xlink:href="#cN"/><use transform="matrix(0.05,0,0,0.05,41.95,0)" xlink:href="#cO"/><use transform="matrix(0.05,0,0,0.05,51.95,0)" xlink:href="#cP"/></g><path d="M110-160c48 1 74 30 74 79 0 53-28 85-80 85-65 0-83-55-86-122-5-90 50-162 133-122 14 7 22 21 27 39l-31 6c-5-40-67-38-82-6-9 19-15 44-15 74 11-20 30-34 60-33zm-7 138c34 0 49-23 49-58s-16-56-50-56c-29 0-50 16-49 49 1 36 15 65 50 65" id="ec"/><g id="aU"><use transform="matrix(0.05,0,0,0.05,0,0)" xlink:href="#ec"/><use transform="matrix(0.05,0,0,0.05,10,0)" xlink:href="#dx"/></g><g id="aV"><use transform="matrix(0.05,0,0,0.05,0,0)" xlink:href="#cK"/><use transform="matrix(0.05,0,0,0.05,12,0)" xlink:href="#cL"/><use transform="matrix(0.05,0,0,0.05,24,0)" xlink:href="#cM"/><use transform="matrix(0.05,0,0,0.05,36.95,0)" xlink:href="#cN"/><use transform="matrix(0.05,0,0,0.05,41.95,0)" xlink:href="#cR"/><use transform="matrix(0.05,0,0,0.05,51.95,0)" xlink:href="#cP"/></g><g id="aW"><use transform="matrix(0.05,0,0,0.05,0,0)" xlink:href="#dQ"/><use transform="matrix(0.05,0,0,0.05,12.950000000000001,0)" xlink:href="#dM"/><use transform="matrix(0.05,0,0,0.05,16.900000000000002,0)" xlink:href="#dm"/><use transform="matrix(0.05,0,0,0.05,20.85,0)" xlink:href="#dm"/></g><g id="aX"><use transform="matrix(0.05,0,0,0.05,0,0)" xlink:href="#cZ"/><use transform="matrix(0.05,0,0,0.05,5,0)" xlink:href="#dL"/><use transform="matrix(0.05,0,0,0.05,10.95,0)" xlink:href="#cT"/><use transform="matrix(0.05,0,0,0.05,20.95,0)" xlink:href="#dK"/><use transform="matrix(0.05,0,0,0.05,30.950000000000003,0)" xlink:href="#cY"/><use transform="matrix(0.05,0,0,0.05,39.95,0)" xlink:href="#dm"/><use transform="matrix(0.05,0,0,0.05,43.900000000000006,0)" xlink:href="#cT"/><use transform="matrix(0.05,0,0,0.05,53.900000000000006,0)" xlink:href="#cZ"/><use transform="matrix(0.05,0,0,0.05,58.900000000000006,0)" xlink:href="#cV"/><use transform="matrix(0.05,0,0,0.05,68.9,0)" xlink:href="#dG"/></g><path d="M106-169C34-169 62-67 57 0H25v-261h32l-1 103c12-21 28-36 61-36 89 0 53 116 60 194h-32v-121c2-32-8-49-39-48" id="ed"/><g id="aY"><use transform="matrix(0.05,0,0,0.05,0,0)" xlink:href="#dQ"/><use transform="matrix(0.05,0,0,0.05,12.950000000000001,0)" xlink:href="#dM"/><use transform="matrix(0.05,0,0,0.05,16.900000000000002,0)" xlink:href="#cZ"/><use transform="matrix(0.05,0,0,0.05,21.900000000000002,0)" xlink:href="#ed"/></g><g id="aZ"><use transform="matrix(0.05,0,0,0.05,0,0)" xlink:href="#cL"/><use transform="matrix(0.05,0,0,0.05,12,0)" xlink:href="#cL"/><use transform="matrix(0.05,0,0,0.05,24,0)" xlink:href="#cM"/></g><g id="ba"><use transform="matrix(0.05,0,0,0.05,0,0)" xlink:href="#cN"/><use transform="matrix(0.05,0,0,0.05,5,0)" xlink:href="#cR"/><use transform="matrix(0.05,0,0,0.05,15,0)" xlink:href="#cP"/></g><path d="M64 0c3-98 48-159 88-221H18v-27h164v26C143-157 98-101 97 0H64" id="ee"/><g id="bb"><use transform="matrix(0.05,0,0,0.05,0,0)" xlink:href="#ee"/><use transform="matrix(0.05,0,0,0.05,10,0)" xlink:href="#dx"/></g><g id="bc"><use transform="matrix(0.05,0,0,0.05,0,0)" xlink:href="#cK"/><use transform="matrix(0.05,0,0,0.05,12,0)" xlink:href="#cL"/><use transform="matrix(0.05,0,0,0.05,24,0)" xlink:href="#cM"/><use transform="matrix(0.05,0,0,0.05,36.95,0)" xlink:href="#cN"/><use transform="matrix(0.05,0,0,0.05,41.95,0)" xlink:href="#cO"/><use transform="matrix(0.05,0,0,0.05,51.95,0)" xlink:href="#cP"/><use transform="matrix(0.05,0,0,0.05,56.95,0)" xlink:href="#dE"/></g><g id="bd"><use transform="matrix(0.05,0,0,0.05,0,0)" xlink:href="#cK"/><use transform="matrix(0.05,0,0,0.05,12,0)" xlink:href="#cL"/><use transform="matrix(0.05,0,0,0.05,24,0)" xlink:href="#cM"/><use transform="matrix(0.05,0,0,0.05,36.95,0)" xlink:href="#cN"/><use transform="matrix(0.05,0,0,0.05,41.95,0)" xlink:href="#dD"/><use transform="matrix(0.05,0,0,0.05,51.95,0)" xlink:href="#cP"/><use transform="matrix(0.05,0,0,0.05,56.95,0)" xlink:href="#dE"/></g><g id="be"><use transform="matrix(0.05,0,0,0.05,0,0)" xlink:href="#dA"/><use transform="matrix(0.05,0,0,0.05,10,0)" xlink:href="#cT"/><use transform="matrix(0.05,0,0,0.05,20,0)" xlink:href="#cU"/><use transform="matrix(0.05,0,0,0.05,30,0)" xlink:href="#cV"/><use transform="matrix(0.05,0,0,0.05,40,0)" xlink:href="#cW"/><use transform="matrix(0.05,0,0,0.05,50,0)" xlink:href="#cX"/><use transform="matrix(0.05,0,0,0.05,54.650000000000006,0)" xlink:href="#cX"/><use transform="matrix(0.05,0,0,0.05,59.650000000000006,0)" xlink:href="#cY"/><use transform="matrix(0.05,0,0,0.05,68.65,0)" xlink:href="#cV"/><use transform="matrix(0.05,0,0,0.05,78.65,0)" xlink:href="#cZ"/></g><g id="bf"><use transform="matrix(0.05,0,0,0.05,0,0)" xlink:href="#dz"/><use transform="matrix(0.05,0,0,0.05,10,0)" xlink:href="#cY"/><use transform="matrix(0.05,0,0,0.05,19,0)" xlink:href="#cV"/></g><g id="bg"><use transform="matrix(0.05,0,0,0.05,0,0)" xlink:href="#dz"/><use transform="matrix(0.05,0,0,0.05,10,0)" xlink:href="#dK"/><use transform="matrix(0.05,0,0,0.05,20,0)" xlink:href="#cZ"/><use transform="matrix(0.05,0,0,0.05,25,0)" xlink:href="#dL"/><use transform="matrix(0.05,0,0,0.05,30.950000000000003,0)" xlink:href="#cT"/><use transform="matrix(0.05,0,0,0.05,40.95,0)" xlink:href="#dK"/><use transform="matrix(0.05,0,0,0.05,50.95,0)" xlink:href="#cY"/><use transform="matrix(0.05,0,0,0.05,59.95,0)" xlink:href="#dm"/><use transform="matrix(0.05,0,0,0.05,63.900000000000006,0)" xlink:href="#cT"/><use transform="matrix(0.05,0,0,0.05,73.9,0)" xlink:href="#cZ"/><use transform="matrix(0.05,0,0,0.05,78.9,0)" xlink:href="#cV"/><use transform="matrix(0.05,0,0,0.05,88.9,0)" xlink:href="#dG"/></g><g id="bh"><use transform="matrix(0.05,0,0,0.05,0,0)" xlink:href="#cX"/><use transform="matrix(0.05,0,0,0.05,5,0)" xlink:href="#cW"/><use transform="matrix(0.05,0,0,0.05,15,0)" xlink:href="#dL"/><use transform="matrix(0.05,0,0,0.05,20.95,0)" xlink:href="#dW"/></g><path d="M96-169c-40 0-48 33-48 73s9 75 48 75c24 0 41-14 43-38l32 2c-6 37-31 61-74 61-59 0-76-41-82-99-10-93 101-131 147-64 4 7 5 14 7 22l-32 3c-4-21-16-35-41-35" id="ef"/><g id="bi"><use transform="matrix(0.05,0,0,0.05,0,0)" xlink:href="#cT"/><use transform="matrix(0.05,0,0,0.05,10,0)" xlink:href="#ef"/><use transform="matrix(0.05,0,0,0.05,19,0)" xlink:href="#cZ"/><use transform="matrix(0.05,0,0,0.05,24,0)" xlink:href="#dz"/><use transform="matrix(0.05,0,0,0.05,34,0)" xlink:href="#cT"/><use transform="matrix(0.05,0,0,0.05,44,0)" xlink:href="#dm"/></g><g id="bj"><use transform="matrix(0.05,0,0,0.05,0,0)" xlink:href="#cL"/><use transform="matrix(0.05,0,0,0.05,10.65,0)" xlink:href="#dB"/></g><path fill="#038503" d="M205 0l-28-72H64L36 0H1l101-248h38L239 0h-34zm-38-99l-47-123c-12 45-31 82-46 123h93" id="eg"/><g id="bk"><use transform="matrix(0.05,0,0,0.05,0,0)" xlink:href="#cF"/><use transform="matrix(0.05,0,0,0.05,10.65,0)" xlink:href="#eg"/><use transform="matrix(0.05,0,0,0.05,22.65,0)" xlink:href="#cm"/><use transform="matrix(0.05,0,0,0.05,33.15,0)" xlink:href="#cn"/><use transform="matrix(0.05,0,0,0.05,43.15,0)" xlink:href="#co"/><use transform="matrix(0.05,0,0,0.05,52.150000000000006,0)" xlink:href="#cp"/><use transform="matrix(0.05,0,0,0.05,62.150000000000006,0)" xlink:href="#cn"/><use transform="matrix(0.05,0,0,0.05,72.15,0)" xlink:href="#cn"/><use transform="matrix(0.05,0,0,0.05,82.15,0)" xlink:href="#cn"/><use transform="matrix(0.05,0,0,0.05,92.15,0)" xlink:href="#cq"/><use transform="matrix(0.05,0,0,0.05,102.15,0)" xlink:href="#cn"/><use transform="matrix(0.05,0,0,0.05,112.15,0)" xlink:href="#cn"/><use transform="matrix(0.05,0,0,0.05,122.15,0)" xlink:href="#cn"/><use transform="matrix(0.05,0,0,0.05,132.15,0)" xlink:href="#cn"/></g><use transform="matrix(0.05,0,0,0.05,0,0)" xlink:href="#cr" id="bl"/><g id="bm"><use transform="matrix(0.05,0,0,0.05,0,0)" xlink:href="#cn"/><use transform="matrix(0.05,0,0,0.05,10,0)" xlink:href="#co"/><use transform="matrix(0.05,0,0,0.05,19,0)" xlink:href="#cs"/><use transform="matrix(0.05,0,0,0.05,31,0)" xlink:href="#ct"/><use transform="matrix(0.05,0,0,0.05,41.95,0)" xlink:href="#ct"/><use transform="matrix(0.05,0,0,0.05,52.900000000000006,0)" xlink:href="#ct"/><use transform="matrix(0.05,0,0,0.05,63.85,0)" xlink:href="#cq"/><use transform="matrix(0.05,0,0,0.05,73.85000000000001,0)" xlink:href="#ct"/><use transform="matrix(0.05,0,0,0.05,84.80000000000001,0)" xlink:href="#ct"/><use transform="matrix(0.05,0,0,0.05,95.75000000000001,0)" xlink:href="#ct"/><use transform="matrix(0.05,0,0,0.05,106.7,0)" xlink:href="#ct"/></g><path fill="#00f" d="M205 0l-28-72H64L36 0H1l101-248h38L239 0h-34zm-38-99l-47-123c-12 45-31 82-46 123h93" id="eh"/><path fill="#00f" d="M134-131c28 9 52 24 51 62-1 50-34 73-85 73S17-19 16-69c0-36 21-54 49-61-75-25-45-126 34-121 46 3 78 18 79 63 0 33-17 51-44 57zm-34-11c31 1 46-15 46-44 0-28-17-43-47-42-29 0-46 13-45 42 1 28 16 44 46 44zm1 122c35 0 51-18 51-52 0-30-18-46-53-46-33 0-51 17-51 47 0 34 19 51 53 51" id="ei"/><g id="bn"><use transform="matrix(0.05,0,0,0.05,0,0)" xlink:href="#cz"/><use transform="matrix(0.05,0,0,0.05,10.65,0)" xlink:href="#eh"/><use transform="matrix(0.05,0,0,0.05,22.65,0)" xlink:href="#bU"/><use transform="matrix(0.05,0,0,0.05,33.15,0)" xlink:href="#bV"/><use transform="matrix(0.05,0,0,0.05,43.15,0)" xlink:href="#bW"/><use transform="matrix(0.05,0,0,0.05,52.150000000000006,0)" xlink:href="#ei"/><use transform="matrix(0.05,0,0,0.05,62.150000000000006,0)" xlink:href="#bV"/><use transform="matrix(0.05,0,0,0.05,72.15,0)" xlink:href="#bV"/><use transform="matrix(0.05,0,0,0.05,82.15,0)" xlink:href="#bV"/><use transform="matrix(0.05,0,0,0.05,92.15,0)" xlink:href="#bY"/><use transform="matrix(0.05,0,0,0.05,102.15,0)" xlink:href="#bV"/><use transform="matrix(0.05,0,0,0.05,112.15,0)" xlink:href="#bV"/><use transform="matrix(0.05,0,0,0.05,122.15,0)" xlink:href="#bV"/><use transform="matrix(0.05,0,0,0.05,132.15,0)" xlink:href="#bV"/></g><use transform="matrix(0.05,0,0,0.05,0,0)" xlink:href="#bZ" id="bo"/><path fill="#00f" d="M160-131c35 5 61 23 61 61C221 17 115-2 30 0v-248c76 3 177-17 177 60 0 33-19 50-47 57zm-97-11c50-1 110 9 110-42 0-47-63-36-110-37v79zm0 115c55-2 124 14 124-45 0-56-70-42-124-44v89" id="ej"/><g id="bp"><use transform="matrix(0.05,0,0,0.05,0,0)" xlink:href="#bV"/><use transform="matrix(0.05,0,0,0.05,10,0)" xlink:href="#bW"/><use transform="matrix(0.05,0,0,0.05,19,0)" xlink:href="#ej"/><use transform="matrix(0.05,0,0,0.05,31,0)" xlink:href="#cb"/><use transform="matrix(0.05,0,0,0.05,41.95,0)" xlink:href="#cb"/><use transform="matrix(0.05,0,0,0.05,52.900000000000006,0)" xlink:href="#cb"/><use transform="matrix(0.05,0,0,0.05,63.85,0)" xlink:href="#bY"/><use transform="matrix(0.05,0,0,0.05,73.85000000000001,0)" xlink:href="#cb"/><use transform="matrix(0.05,0,0,0.05,84.80000000000001,0)" xlink:href="#cb"/><use transform="matrix(0.05,0,0,0.05,95.75000000000001,0)" xlink:href="#cb"/><use transform="matrix(0.05,0,0,0.05,106.7,0)" xlink:href="#cb"/></g><path fill="#c92d39" d="M205 0l-28-72H64L36 0H1l101-248h38L239 0h-34zm-38-99l-47-123c-12 45-31 82-46 123h93" id="ek"/><path fill="#c92d39" d="M134-131c28 9 52 24 51 62-1 50-34 73-85 73S17-19 16-69c0-36 21-54 49-61-75-25-45-126 34-121 46 3 78 18 79 63 0 33-17 51-44 57zm-34-11c31 1 46-15 46-44 0-28-17-43-47-42-29 0-46 13-45 42 1 28 16 44 46 44zm1 122c35 0 51-18 51-52 0-30-18-46-53-46-33 0-51 17-51 47 0 34 19 51 53 51" id="el"/><g id="bq"><use transform="matrix(0.05,0,0,0.05,0,0)" xlink:href="#cu"/><use transform="matrix(0.05,0,0,0.05,10.65,0)" xlink:href="#ek"/><use transform="matrix(0.05,0,0,0.05,22.65,0)" xlink:href="#bD"/><use transform="matrix(0.05,0,0,0.05,33.15,0)" xlink:href="#bE"/><use transform="matrix(0.05,0,0,0.05,43.15,0)" xlink:href="#bF"/><use transform="matrix(0.05,0,0,0.05,52.150000000000006,0)" xlink:href="#el"/><use transform="matrix(0.05,0,0,0.05,62.150000000000006,0)" xlink:href="#bE"/><use transform="matrix(0.05,0,0,0.05,72.15,0)" xlink:href="#bE"/><use transform="matrix(0.05,0,0,0.05,82.15,0)" xlink:href="#bE"/><use transform="matrix(0.05,0,0,0.05,92.15,0)" xlink:href="#bG"/><use transform="matrix(0.05,0,0,0.05,102.15,0)" xlink:href="#bE"/><use transform="matrix(0.05,0,0,0.05,112.15,0)" xlink:href="#bE"/><use transform="matrix(0.05,0,0,0.05,122.15,0)" xlink:href="#bE"/><use transform="matrix(0.05,0,0,0.05,132.15,0)" xlink:href="#bE"/></g><use transform="matrix(0.05,0,0,0.05,0,0)" xlink:href="#bH" id="br"/><path fill="#c92d39" d="M160-131c35 5 61 23 61 61C221 17 115-2 30 0v-248c76 3 177-17 177 60 0 33-19 50-47 57zm-97-11c50-1 110 9 110-42 0-47-63-36-110-37v79zm0 115c55-2 124 14 124-45 0-56-70-42-124-44v89" id="em"/><g id="bs"><use transform="matrix(0.05,0,0,0.05,0,0)" xlink:href="#bE"/><use transform="matrix(0.05,0,0,0.05,10,0)" xlink:href="#bF"/><use transform="matrix(0.05,0,0,0.05,19,0)" xlink:href="#em"/><use transform="matrix(0.05,0,0,0.05,31,0)" xlink:href="#bJ"/><use transform="matrix(0.05,0,0,0.05,41.95,0)" xlink:href="#bJ"/><use transform="matrix(0.05,0,0,0.05,52.900000000000006,0)" xlink:href="#bJ"/><use transform="matrix(0.05,0,0,0.05,63.85,0)" xlink:href="#bG"/><use transform="matrix(0.05,0,0,0.05,73.85000000000001,0)" xlink:href="#bJ"/><use transform="matrix(0.05,0,0,0.05,84.80000000000001,0)" xlink:href="#bJ"/><use transform="matrix(0.05,0,0,0.05,95.75000000000001,0)" xlink:href="#bJ"/><use transform="matrix(0.05,0,0,0.05,106.7,0)" xlink:href="#bJ"/></g></defs></g></svg>